<?xml version="1.0" encoding="UTF-8"?>
<svg version="1.1" xmlns="http://www.w3.org/2000/svg" width="1013" height="551">
<path d="M0 0 C334.29 0 668.58 0 1013 0 C1013 181.83 1013 363.66 1013 551 C678.71 551 344.42 551 0 551 C0 369.17 0 187.34 0 0 Z " fill="#B9DEEB" transform="translate(0,0)"/>
<path d="M0 0 C1.18734741 0.28411743 1.18734741 0.28411743 2.39868164 0.57397461 C9.42339182 2.38266874 16.21044529 4.7478475 20.9375 10.5 C21.37426758 12.78173828 21.37426758 12.78173828 21.26953125 15.4453125 C21.2329541 16.5065332 21.19637695 17.56775391 21.15869141 18.66113281 C21.08569824 19.92795898 21.01270508 21.19478516 20.9375 22.5 C20.87849518 23.62625793 20.87849518 23.62625793 20.81829834 24.77526855 C20.53933973 30.05191736 20.19722262 35.3222502 19.82055664 40.59277344 C19.6239955 43.38929122 19.44573628 46.18663214 19.26757812 48.984375 C19.14174816 50.77872495 19.01483366 52.57299925 18.88671875 54.3671875 C18.83658127 55.19540009 18.78644379 56.02361267 18.73478699 56.87692261 C18.36529123 61.70384377 17.58198003 65.31070052 14.9375 69.5 C9.36109028 72.6649893 2.82339842 72.62156508 -3.4375 72.5625 C-4.68273437 72.55347656 -5.92796875 72.54445313 -7.2109375 72.53515625 C-8.15195312 72.52355469 -9.09296875 72.51195312 -10.0625 72.5 C-10.34652303 76.58171464 -10.58380287 80.66484151 -10.8125 84.75 C-10.89371094 85.90886719 -10.97492188 87.06773437 -11.05859375 88.26171875 C-11.11660156 89.37675781 -11.17460938 90.49179688 -11.234375 91.640625 C-11.2972168 92.66704102 -11.36005859 93.69345703 -11.42480469 94.75097656 C-10.9638904 98.24821034 -9.6876464 99.24969601 -7.0625 101.5 C-3.45213647 108.72072705 -7.36108838 123.77673827 -9.0625 131.5 C-11.05052182 136.09282604 -12.86353856 138.70069237 -17.0625 141.5 C-17.7225 141.5 -18.3825 141.5 -19.0625 141.5 C-19.34670056 145.24823003 -19.58388363 148.99800197 -19.8125 152.75 C-19.89371094 153.81347656 -19.97492188 154.87695312 -20.05859375 155.97265625 C-20.11660156 156.99746094 -20.17460938 158.02226562 -20.234375 159.078125 C-20.2972168 160.02075195 -20.36005859 160.96337891 -20.42480469 161.93457031 C-19.9517973 165.28387063 -18.45586097 166.21042013 -16.0625 168.5 C-15.62573242 170.54296875 -15.62573242 170.54296875 -15.73046875 172.6875 C-15.7670459 173.47511719 -15.80362305 174.26273438 -15.84130859 175.07421875 C-16.1917453 178.91741868 -16.70574246 182.69961719 -17.375 186.5 C-17.51107666 187.28383057 -17.64715332 188.06766113 -17.78735352 188.87524414 C-20.26068927 202.58194341 -20.26068927 202.58194341 -24 206.5625 C-26.0625 207.5 -26.0625 207.5 -30.0625 207.5 C-30.22685547 208.48226562 -30.22685547 208.48226562 -30.39453125 209.484375 C-31.62772732 216.58277187 -33.23824825 223.5313583 -35.0625 230.5 C-34.44375 230.768125 -33.825 231.03625 -33.1875 231.3125 C-31.0625 232.5 -31.0625 232.5 -29.0625 235.5 C-28.34573053 242.05455456 -30.33456711 247.84031737 -32.25 254.0625 C-32.54197266 255.07763672 -32.83394531 256.09277344 -33.13476562 257.13867188 C-34.91008272 262.98385569 -36.59138697 267.26234698 -41.0625 271.5 C-44.375 272.375 -44.375 272.375 -47.0625 272.5 C-47.3925 273.82 -47.7225 275.14 -48.0625 276.5 C-47.05058594 276.46519531 -46.03867187 276.43039062 -44.99609375 276.39453125 C-34.34299123 276.15590963 -23.84660097 276.82809689 -13.25 277.875 C-11.96472412 278.00108643 -10.67944824 278.12717285 -9.35522461 278.25708008 C24.51336055 281.73395116 24.51336055 281.73395116 36.375 290.25 C38.24561375 292.9436838 38.55446411 295.0822895 38.40234375 298.34375 C37.70446137 301.5809859 36.12059997 303.96017431 34.2265625 306.640625 C31.73756554 310.23081455 30.63646588 313.35238163 30.0078125 317.67651367 C29.85425293 318.70826218 29.70069336 319.74001068 29.54248047 320.80302429 C29.30489014 322.4686718 29.30489014 322.4686718 29.0625 324.16796875 C28.89250488 325.31735428 28.72250977 326.46673981 28.54736328 327.6509552 C28.00426477 331.32888604 27.47031223 335.00806609 26.9375 338.6875 C26.40346296 342.34888301 25.86741266 346.00994497 25.32763672 349.67048645 C24.99230335 351.94720729 24.66041734 354.22443943 24.33251953 356.50224304 C23.64284588 361.20686399 22.92290854 365.90416031 22.01171875 370.5715332 C21.87854248 371.25858841 21.74536621 371.94564362 21.6081543 372.65351868 C20.11284563 376.77048256 16.68578244 378.6047417 12.9375 380.5 C7.40761295 382.90995354 1.70703437 384.75825378 -4.0625 386.5 C-5.29097656 386.87125 -6.51945312 387.2425 -7.78515625 387.625 C-22.85886282 391.61555727 -38.59728274 392.8116317 -54.0625 394.5 C-55.10567383 394.61617676 -56.14884766 394.73235352 -57.22363281 394.85205078 C-62.83121304 395.47260201 -68.44055734 396.02699382 -74.0625 396.5 C-75.37476563 396.61214844 -76.68703125 396.72429687 -78.0390625 396.83984375 C-94.38854453 397.98086879 -110.62613738 397.5 -127.0625 397.5 C-127.0625 422.91 -127.0625 448.32 -127.0625 474.5 C-135.6425 474.5 -144.2225 474.5 -153.0625 474.5 C-153.0625 449.09 -153.0625 423.68 -153.0625 397.5 C-159.9925 397.5 -166.9225 397.5 -174.0625 397.5 C-178.01795528 397.37004787 -181.94410636 397.22148657 -185.890625 396.984375 C-186.88175293 396.92876907 -187.87288086 396.87316315 -188.89404297 396.81587219 C-192.03410158 396.63573487 -195.17329786 396.44446092 -198.3125 396.25 C-199.39801147 396.18408661 -200.48352295 396.11817322 -201.60192871 396.05026245 C-220.1977451 394.90680887 -238.63490162 393.26598727 -257.0625 390.5 C-258.13854492 390.33886719 -259.21458984 390.17773438 -260.32324219 390.01171875 C-294.9274966 384.65953605 -294.9274966 384.65953605 -302.0625 375.5 C-304.5490607 368.93223642 -305.08015071 361.86124899 -306 354.9375 C-307.16169777 346.48265172 -308.38690763 338.1613229 -310.35546875 329.85546875 C-310.92337824 327.16025188 -311.36388062 324.52561593 -311.73828125 321.80078125 C-313.25431682 310.14581515 -313.25431682 310.14581515 -318.07421875 299.5078125 C-319.32935806 296.95784568 -319.43672858 295.30896872 -319.0625 292.5 C-313.57310556 284.77485882 -303.12655737 282.46629612 -294.375 280.9375 C-275.62603721 277.93930431 -256.05358157 275.66894781 -237.0625 276.5 C-237.3925 275.18 -237.7225 273.86 -238.0625 272.5 C-238.784375 272.438125 -239.50625 272.37625 -240.25 272.3125 C-244.18712985 271.17510693 -245.52891598 269.74818464 -248.0625 266.5 C-252.45015366 257.36556089 -255.78160911 245.66820278 -255.0625 235.5 C-253.1875 232.625 -253.1875 232.625 -251.0625 230.5 C-250.4025 230.5 -249.7425 230.5 -249.0625 230.5 C-249.18367187 229.90461426 -249.30484375 229.30922852 -249.4296875 228.69580078 C-249.97595964 226.00593576 -250.51926529 223.31548002 -251.0625 220.625 C-251.25328125 219.68785156 -251.4440625 218.75070312 -251.640625 217.78515625 C-251.82109375 216.88925781 -252.0015625 215.99335938 -252.1875 215.0703125 C-252.35507812 214.24289551 -252.52265625 213.41547852 -252.6953125 212.56298828 C-253.0625 210.5 -253.0625 210.5 -253.0625 208.5 C-253.97 208.29375 -254.8775 208.0875 -255.8125 207.875 C-258.96968044 206.53926981 -260.50971503 205.54657166 -262.25390625 202.59375 C-264.10986495 197.78798254 -264.48112348 192.58551458 -265.0625 187.5 C-265.17464844 186.66597656 -265.28679688 185.83195313 -265.40234375 184.97265625 C-265.67907089 182.81570086 -265.89115329 180.66773518 -266.0625 178.5 C-266.12824219 177.71625 -266.19398438 176.9325 -266.26171875 176.125 C-266.31779297 174.949375 -266.31779297 174.949375 -266.375 173.75 C-266.43107422 172.70585937 -266.43107422 172.70585937 -266.48828125 171.640625 C-266.0625 169.5 -266.0625 169.5 -264.05859375 167.47265625 C-260.93046087 162.81412568 -261.63874682 158.15738388 -261.8125 152.6875 C-261.83054687 151.61306641 -261.84859375 150.53863281 -261.8671875 149.43164062 C-261.91420608 146.78684535 -261.9799084 144.14388411 -262.0625 141.5 C-263.2532312 141.29117188 -263.2532312 141.29117188 -264.46801758 141.078125 C-267.42310502 140.41964687 -268.09318802 139.96595271 -269.75 137.5 C-273.52230714 130.8925312 -273.59773776 122.93789824 -274.0625 115.5 C-274.14628906 114.24058594 -274.23007812 112.98117188 -274.31640625 111.68359375 C-274.61114399 103.32635268 -274.61114399 103.32635268 -272.1640625 99.640625 C-271.47054687 98.93421875 -270.77703125 98.2278125 -270.0625 97.5 C-269.4025 97.5 -268.7425 97.5 -268.0625 97.5 C-268.206875 96.44941406 -268.35125 95.39882812 -268.5 94.31640625 C-268.68780508 92.89847787 -268.87528769 91.48050676 -269.0625 90.0625 C-269.15789063 89.37478516 -269.25328125 88.68707031 -269.3515625 87.97851562 C-270.0283061 82.78209157 -270.14510534 77.74027651 -270.0625 72.5 C-271.2690625 72.47421875 -272.475625 72.4484375 -273.71875 72.421875 C-275.33336738 72.36555114 -276.94794933 72.3082048 -278.5625 72.25 C-279.35398437 72.23582031 -280.14546875 72.22164063 -280.9609375 72.20703125 C-286.55925131 71.97759216 -291.55515085 71.02603485 -296.0625 67.5 C-299.20584584 63.46717459 -299.59614076 59.65379263 -299.79296875 54.69921875 C-299.833116 53.94518265 -299.87326324 53.19114655 -299.91462708 52.41426086 C-299.99720876 50.81677291 -300.07329662 49.2189377 -300.14331055 47.62084961 C-300.24801923 45.23267704 -300.37105608 42.84606482 -300.49804688 40.45898438 C-300.69915375 36.56911812 -300.84065201 32.67948846 -300.96673584 28.78656006 C-301.06205285 26.51067671 -301.22248503 24.2464452 -301.39306641 21.97509766 C-302.0057974 11.91798699 -302.0057974 11.91798699 -299.58569336 8.2800293 C-297.48096231 6.58402428 -295.55562928 5.53512203 -293.0625 4.5 C-292.38638672 4.20351563 -291.71027344 3.90703125 -291.01367188 3.6015625 C-288.80254258 2.75483621 -286.60001656 2.11066827 -284.3125 1.5 C-283.4354541 1.25854248 -282.5584082 1.01708496 -281.65478516 0.76831055 C-196.07526957 -21.46227778 -91.5194135 -20.27367218 0 0 Z " fill="#0B3922" transform="translate(848.0625,56.5)"/>
<path d="M0 0 C15.15325842 14.32294289 24.75669027 34.49711505 25.52262878 55.43974304 C25.5904996 58.88032309 25.57859316 62.31696098 25.5390625 65.7578125 C25.53440979 66.48214478 25.52975708 67.20647705 25.52496338 67.95275879 C25.44164017 79.03505078 24.91464104 89.73348746 22.1640625 100.5078125 C21.85807129 101.72670166 21.85807129 101.72670166 21.54589844 102.97021484 C9.05383513 151.60198095 -16.82189153 194.09481017 -49.8359375 231.5078125 C-50.47595703 232.23685791 -51.11597656 232.96590332 -51.77539062 233.71704102 C-57.50691176 240.17407936 -63.48841647 246.34651673 -69.59179688 252.44897461 C-71.2073443 254.06671442 -72.81468784 255.69231886 -74.421875 257.31835938 C-80.91483651 263.84603962 -87.60937984 269.79015409 -94.8359375 275.5078125 C-95.88647078 276.38340553 -96.93313007 277.26371073 -97.97265625 278.15234375 C-139.63833995 313.56498456 -188.51464064 339.07890241 -241.8359375 351.5078125 C-242.75713379 351.73227051 -243.67833008 351.95672852 -244.62744141 352.18798828 C-258.7456333 355.51878749 -272.83655265 355.91587088 -287.2734375 356.0078125 C-288.16522705 356.01843719 -289.0570166 356.02906189 -289.97583008 356.04000854 C-316.6156345 356.28318661 -343.38049666 348.1363978 -363.8359375 330.5078125 C-364.55910156 329.93933594 -365.28226563 329.37085938 -366.02734375 328.78515625 C-382.79806039 315.04775184 -392.93087181 292.84725967 -395.515625 271.67578125 C-400.49742439 214.44202316 -370.72236517 160.77285886 -335.03125 118.1015625 C-334.30679688 117.245625 -333.58234375 116.3896875 -332.8359375 115.5078125 C-331.97855084 114.47707444 -331.12181245 113.4457969 -330.265625 112.4140625 C-321.03249929 101.33298098 -311.2607443 90.85418084 -301.0859375 80.6328125 C-300.38903809 79.93124023 -299.69213867 79.22966797 -298.97412109 78.50683594 C-294.42362549 73.97036177 -289.70966185 69.69283109 -284.8359375 65.5078125 C-283.74129641 64.54658674 -282.64750015 63.58439775 -281.5546875 62.62109375 C-273.63439282 55.70242598 -265.44260884 49.26531964 -256.95410156 43.05957031 C-254.77948934 41.46645882 -252.61622198 39.85870182 -250.453125 38.25 C-240.93600067 31.21998701 -231.18820248 24.80600471 -220.99902344 18.79443359 C-218.94295751 17.57146887 -216.90731063 16.32053576 -214.875 15.05859375 C-180.05324347 -6.33837427 -140.40473211 -20.36714031 -99.8359375 -25.4921875 C-98.9490625 -25.60433594 -98.0621875 -25.71648438 -97.1484375 -25.83203125 C-62.46576249 -29.42838818 -26.82147652 -23.57038846 0 0 Z " fill="#8DD15A" transform="translate(478.8359375,74.4921875)"/>
<path d="M0 0 C15.15325842 14.32294289 24.75669027 34.49711505 25.52262878 55.43974304 C25.5904996 58.88032309 25.57859316 62.31696098 25.5390625 65.7578125 C25.53440979 66.48214478 25.52975708 67.20647705 25.52496338 67.95275879 C25.44164017 79.03505078 24.91464104 89.73348746 22.1640625 100.5078125 C21.85807129 101.72670166 21.85807129 101.72670166 21.54589844 102.97021484 C9.05383513 151.60198095 -16.82189153 194.09481017 -49.8359375 231.5078125 C-50.47595703 232.23685791 -51.11597656 232.96590332 -51.77539062 233.71704102 C-57.50691176 240.17407936 -63.48841647 246.34651673 -69.59179688 252.44897461 C-71.2073443 254.06671442 -72.81468784 255.69231886 -74.421875 257.31835938 C-80.91483651 263.84603962 -87.60937984 269.79015409 -94.8359375 275.5078125 C-95.88647078 276.38340553 -96.93313007 277.26371073 -97.97265625 278.15234375 C-139.63833995 313.56498456 -188.51464064 339.07890241 -241.8359375 351.5078125 C-242.75713379 351.73227051 -243.67833008 351.95672852 -244.62744141 352.18798828 C-258.7456333 355.51878749 -272.83655265 355.91587088 -287.2734375 356.0078125 C-288.16522705 356.01843719 -289.0570166 356.02906189 -289.97583008 356.04000854 C-316.6156345 356.28318661 -343.38049666 348.1363978 -363.8359375 330.5078125 C-364.55910156 329.93933594 -365.28226563 329.37085938 -366.02734375 328.78515625 C-382.79806039 315.04775184 -392.93087181 292.84725967 -395.515625 271.67578125 C-400.49742439 214.44202316 -370.72236517 160.77285886 -335.03125 118.1015625 C-334.30679688 117.245625 -333.58234375 116.3896875 -332.8359375 115.5078125 C-331.97855084 114.47707444 -331.12181245 113.4457969 -330.265625 112.4140625 C-321.03249929 101.33298098 -311.2607443 90.85418084 -301.0859375 80.6328125 C-300.38903809 79.93124023 -299.69213867 79.22966797 -298.97412109 78.50683594 C-294.42362549 73.97036177 -289.70966185 69.69283109 -284.8359375 65.5078125 C-283.74129641 64.54658674 -282.64750015 63.58439775 -281.5546875 62.62109375 C-273.63439282 55.70242598 -265.44260884 49.26531964 -256.95410156 43.05957031 C-254.77948934 41.46645882 -252.61622198 39.85870182 -250.453125 38.25 C-240.93600067 31.21998701 -231.18820248 24.80600471 -220.99902344 18.79443359 C-218.94295751 17.57146887 -216.90731063 16.32053576 -214.875 15.05859375 C-180.05324347 -6.33837427 -140.40473211 -20.36714031 -99.8359375 -25.4921875 C-98.9490625 -25.60433594 -98.0621875 -25.71648438 -97.1484375 -25.83203125 C-62.46576249 -29.42838818 -26.82147652 -23.57038846 0 0 Z M-111.45800781 -2.93652344 C-113.76520701 -2.50540408 -116.07659515 -2.11124622 -118.390625 -1.71875 C-139.48273335 2.07977514 -159.61284065 10.21671376 -178.8359375 19.5078125 C-180.08431396 20.10529297 -180.08431396 20.10529297 -181.35791016 20.71484375 C-207.30146881 33.18437795 -231.30827744 48.59403148 -253.8359375 66.5078125 C-254.37428223 66.93433105 -254.91262695 67.36084961 -255.46728516 67.80029297 C-261.24381111 72.39504498 -266.80670046 77.19211769 -272.25390625 82.171875 C-274.32806906 84.04834907 -276.42772036 85.87849515 -278.546875 87.703125 C-283.31200962 91.865861 -287.80257956 96.2829203 -292.2734375 100.7578125 C-293.11310059 101.59755615 -293.95276367 102.4372998 -294.81787109 103.30249023 C-299.84747503 108.37863736 -304.56866244 113.49453028 -308.95703125 119.13671875 C-310.87082363 121.5518372 -312.91121197 123.76525001 -315.0234375 126.0078125 C-347.64305488 162.02530669 -374.6738571 210.63015162 -373.28125 260.17578125 C-372.62522051 272.52489494 -368.96122426 283.00175806 -360.8359375 292.5078125 C-360.33707031 293.12785156 -359.83820313 293.74789063 -359.32421875 294.38671875 C-348.42382064 306.65996297 -331.15934282 311.65673432 -315.34326172 312.74902344 C-279.44914802 314.03805196 -245.87342178 304.43818798 -213.8359375 288.5078125 C-212.87413574 288.03504883 -211.91233398 287.56228516 -210.92138672 287.07519531 C-168.04228333 265.86267854 -130.921439 236.49119227 -97.0859375 202.9453125 C-96.2105835 202.08301025 -95.33522949 201.22070801 -94.43334961 200.33227539 C-89.21560467 195.1214381 -84.41979165 189.72528485 -79.81005859 183.9699707 C-78.23357467 182.00375251 -76.63363838 180.08177991 -74.97265625 178.1875 C-44.32419866 143.09086116 -11.16184703 90.62451211 -13.484375 42.328125 C-13.94491488 37.32359163 -14.77214776 33.08880034 -16.8359375 28.5078125 C-17.238125 27.60804687 -17.6403125 26.70828125 -18.0546875 25.78125 C-24.6403423 12.5001795 -35.54139846 4.54187056 -49.19140625 -0.6171875 C-69.49143812 -7.33388933 -90.63422389 -6.83312687 -111.45800781 -2.93652344 Z " fill="#0A3921" transform="translate(478.8359375,74.4921875)"/>
<path d="M0 0 C0.33 0.66 0.66 1.32 1 2 C0.12646484 3.79321289 0.12646484 3.79321289 -1.2890625 5.97265625 C-1.81209961 6.7817041 -2.33513672 7.59075195 -2.87402344 8.42431641 C-3.74075684 9.73021729 -3.74075684 9.73021729 -4.625 11.0625 C-5.50720215 12.40320557 -5.50720215 12.40320557 -6.40722656 13.77099609 C-14.12299771 25.36107809 -22.4118931 36.49185255 -31.90625 46.69140625 C-34.13713539 49.15120711 -36.18852203 51.70951061 -38.25 54.3125 C-45.28610829 62.99981409 -53.34045479 70.91999831 -61.8671875 78.14453125 C-64.12268588 80.10673222 -66.29638543 82.14649232 -68.47167969 84.19677734 C-75.05888688 90.38517252 -81.91286761 96.06185155 -89.09619141 101.54199219 C-91.11934653 103.09140003 -93.12851044 104.65783909 -95.13671875 106.2265625 C-104.16111063 113.24679336 -113.34144564 119.87926296 -123 126 C-123.85996582 126.54769043 -123.85996582 126.54769043 -124.73730469 127.10644531 C-142.10036353 138.07517654 -160.3015409 147.40824022 -179.69580078 154.19335938 C-181.7620629 154.91670437 -183.81704294 155.66475047 -185.87109375 156.421875 C-196.67769995 160.25685902 -207.78261201 162.69545417 -219 165 C-220.16660156 165.25007812 -221.33320313 165.50015625 -222.53515625 165.7578125 C-248.21489057 170.36782802 -280.11779293 168.38402924 -302.5 153.625 C-303.67921649 152.766988 -304.85195909 151.89929871 -306 151 C-303.35849946 149.67924973 -302.278481 150.26153356 -299.41796875 150.91796875 C-291.73782077 152.40054082 -284.0996893 152.35253938 -276.3125 152.3125 C-275.54066376 152.31001251 -274.76882751 152.30752502 -273.97360229 152.30496216 C-234.54160474 152.1091828 -198.73782916 140.99025797 -163 125 C-161.90510254 124.51345947 -161.90510254 124.51345947 -160.78808594 124.01708984 C-121.50189765 106.44839379 -83.06975344 82.37082322 -51.38671875 53.13671875 C-49.04020211 51.03599109 -46.61168171 49.11901556 -44.125 47.1875 C-31.11974704 36.6532451 -19.24896279 24.20977426 -9 11 C-7.15855282 8.86478109 -5.29187978 6.75595096 -3.41015625 4.65625 C-1.81153774 2.84410377 -1.81153774 2.84410377 0 0 Z " fill="#0D3A23" transform="translate(470,311)"/>
<path d="M0 0 C10.23 0 20.46 0 31 0 C28.43426249 46.77536846 24.48171408 93.05504991 15 139 C14.73181908 140.31866161 14.46375336 141.63734666 14.19580078 142.95605469 C-0.46254304 214.60732917 -0.46254304 214.60732917 -25 231 C-27.234375 231.6796875 -27.234375 231.6796875 -29 232 C-28.51789062 231.07058594 -28.03578125 230.14117187 -27.5390625 229.18359375 C-26.90071567 227.93506245 -26.26271322 226.68635505 -25.625 225.4375 C-25.30789063 224.82841797 -24.99078125 224.21933594 -24.6640625 223.59179688 C-20.66239694 215.7135178 -19.62222363 208.185691 -18.953125 199.42578125 C-17.71126978 194.96222786 -15.85166955 194.3758414 -12 192 C-8.85591743 187.25264354 -8.1073932 182.27985798 -7.3125 176.75 C-7.18875 175.90751709 -7.065 175.06503418 -6.9375 174.19702148 C-5.27690655 165.53857673 -5.27690655 165.53857673 -6 157 C-6.82757812 156.39542969 -7.65515625 155.79085937 -8.5078125 155.16796875 C-11 153 -11 153 -11.5234375 149.828125 C-11.37359535 146.21614054 -11.22248612 142.60832035 -11 139 C-11.00128906 138.18015625 -11.00257813 137.3603125 -11.00390625 136.515625 C-10.90708396 133.57678364 -10.52112144 131.53683364 -8.4453125 129.3984375 C-7.19404078 128.38599773 -5.92958252 127.38963383 -4.65234375 126.41015625 C-0.92367112 123.22800301 -0.89058294 118.64847459 -0.375 114.0625 C-0.23094329 112.04293568 -0.10809181 110.02180823 0 108 C0.07734375 106.72253906 0.1546875 105.44507813 0.234375 104.12890625 C0.28462387 102.7943936 0.33152704 101.45975056 0.375 100.125 C0.42398438 98.89007813 0.47296875 97.65515625 0.5234375 96.3828125 C-0.1418383 92.0833435 -1.92689683 90.94825835 -5 88 C-5.5234375 85.34375 -5.5234375 85.34375 -5.375 82.5 C-5.3234375 81.45972656 -5.271875 80.41945313 -5.21875 79.34765625 C-5.1465625 78.24292969 -5.074375 77.13820313 -5 76 C-4.9896875 74.82308594 -4.979375 73.64617187 -4.96875 72.43359375 C-4.88130619 69.17266823 -4.73271827 66.17980941 -4 63 C-1.125 61.125 -1.125 61.125 2 60 C4.64595879 55.08134404 5.36567878 51.40105171 5.29296875 45.75390625 C5.28660149 44.76994118 5.28660149 44.76994118 5.28010559 43.76609802 C5.26348779 41.69779089 5.22587238 39.63050599 5.1875 37.5625 C5.17243111 36.14910275 5.15874659 34.73569002 5.14648438 33.32226562 C5.11364104 29.88118565 5.06198015 26.44069281 5 23 C3.35 22.34 1.7 21.68 0 21 C0 14.07 0 7.14 0 0 Z " fill="#BBDDE9" transform="translate(758,132)"/>
<path d="M0 0 C9.9 0 19.8 0 30 0 C30.103125 3.361875 30.20625 6.72375 30.3125 10.1875 C30.38078003 11.76374146 30.38078003 11.76374146 30.45043945 13.37182617 C30.5535964 20.31262513 30.5535964 20.31262513 27.54296875 24.05078125 C26.70378906 24.69402344 25.86460937 25.33726562 25 26 C22.79234867 30.41530265 23.77009666 36.40168115 23.75 41.25 C23.729375 42.47847656 23.70875 43.70695312 23.6875 44.97265625 C23.68234375 46.16246094 23.6771875 47.35226563 23.671875 48.578125 C23.6625293 49.66512695 23.65318359 50.75212891 23.64355469 51.87207031 C24.06194003 55.54354496 25.05520292 57.86702085 27 61 C28.06528931 61.77452515 28.06528931 61.77452515 29.15209961 62.56469727 C31 64 31 64 31.53344727 66.29663086 C31.56904627 69.17856812 31.59388766 72.05537445 31.5625 74.9375 C31.58634766 75.93974609 31.61019531 76.94199219 31.63476562 77.97460938 C31.63283203 78.94076172 31.63089844 79.90691406 31.62890625 80.90234375 C31.62963135 81.78398193 31.63035645 82.66562012 31.63110352 83.57397461 C31 86 31 86 28.49780273 87.89941406 C25.70323666 89.80518616 25.70323666 89.80518616 25.38476562 93.09692383 C25.39185547 94.28825928 25.39894531 95.47959473 25.40625 96.70703125 C25.41011719 98.6705957 25.41011719 98.6705957 25.4140625 100.67382812 C25.42856445 101.35388916 25.44306641 102.0339502 25.45800781 102.73461914 C25.4996679 104.79606666 25.49909056 106.85422022 25.4921875 108.91601562 C25.4073745 118.45528622 25.4073745 118.45528622 29 127 C32.03411107 128.97806411 32.03411107 128.97806411 35 130 C35.14567407 133.56206722 35.23419196 137.12336551 35.3125 140.6875 C35.35439453 141.69490234 35.39628906 142.70230469 35.43945312 143.74023438 C35.56512647 151.35603927 35.56512647 151.35603927 32.5078125 154.83984375 C31.68023438 155.55269531 30.85265625 156.26554688 30 157 C28.06477403 166.71672897 29.77034098 180.77901101 33.8125 189.8125 C35.62481217 193.19610036 35.62481217 193.19610036 38.5390625 193.671875 C39.35117187 194.11015625 40.16328125 194.5484375 41 195 C41.78477085 197.92838615 42.2425018 200.45516498 42.5625 203.4375 C43.54667223 210.73369955 45.09818643 217.19777304 48 224 C48.6686747 225.66586205 49.33587864 227.33231747 50 229 C39.65382172 224.78489033 33.23971058 212.06091242 28.98583984 202.38330078 C20.81088672 182.62007829 15.99526835 161.93639784 12 141 C11.86764954 140.31160034 11.73529907 139.62320068 11.59893799 138.91394043 C5.02515201 104.55256714 0.19184281 69.01664159 0 34 C-0.00410889 33.32696838 -0.00821777 32.65393677 -0.01245117 31.96051025 C-0.07433677 21.30655452 -0.05680416 10.65393492 0 0 Z " fill="#BCDEE9" transform="translate(627,132)"/>
<path d="M0 0 C8.91 0 17.82 0 27 0 C27 75.57 27 151.14 27 229 C20.74258834 226.49703534 19.05459793 223.80709277 16 218 C13.48516212 211.85615557 11.50158765 205.64603638 11 199 C10.93683594 198.25878906 10.87367188 197.51757812 10.80859375 196.75390625 C10.76863281 195.96886719 10.72867188 195.18382812 10.6875 194.375 C10.65011719 193.66085937 10.61273437 192.94671875 10.57421875 192.2109375 C11 190 11 190 13.02734375 187.609375 C15.52145825 184.31022948 15.33406527 182.92844867 14.875 178.875 C14.74996094 177.66328125 14.62492188 176.4515625 14.49609375 175.203125 C14.4172998 174.53990234 14.33850586 173.87667969 14.25732422 173.19335938 C13.97077492 170.75089364 13.71978098 168.30613657 13.47265625 165.859375 C13.00296092 161.23712646 12.50712522 156.61828597 12 152 C9.69 151.34 7.38 150.68 5 150 C4.51800706 146.27518364 4.09734405 142.54588818 3.6875 138.8125 C3.55021484 137.75740234 3.41292969 136.70230469 3.27148438 135.61523438 C2.44786109 127.7034592 2.44786109 127.7034592 5.39453125 123.94921875 C6.25433594 123.30597656 7.11414063 122.66273438 8 122 C9.72543174 116.82370477 9.1212255 111.41106544 9 106 C8.98743164 105.30422852 8.97486328 104.60845703 8.96191406 103.89160156 C8.91433307 101.73880433 8.83640801 99.58905943 8.75 97.4375 C8.73598145 96.75921143 8.72196289 96.08092285 8.70751953 95.38208008 C8.54120623 92.08022318 8.22009307 90.27696587 6.140625 87.66015625 C4.47842014 86.37103751 2.75022568 85.16681712 1 84 C0.30922819 80.46099931 0.49077328 76.84841971 0.5 73.25 C0.47164062 72.26 0.44328125 71.27 0.4140625 70.25 C0.39219281 62.07073633 0.39219281 62.07073633 3.46875 58.484375 C4.3040625 57.66453125 5.139375 56.8446875 6 56 C7.08332541 52.75002378 7.12927538 50.35952492 7.1328125 46.94140625 C7.13410156 45.75095703 7.13539063 44.56050781 7.13671875 43.33398438 C7.13285156 42.08939453 7.12898437 40.84480469 7.125 39.5625 C7.12886719 38.32177734 7.13273438 37.08105469 7.13671875 35.80273438 C7.13542969 34.61099609 7.13414062 33.41925781 7.1328125 32.19140625 C7.13112061 30.55473999 7.13112061 30.55473999 7.12939453 28.88500977 C7.01702592 26.37961374 6.89733533 24.33665578 6 22 C3.54295238 20.76709799 3.54295238 20.76709799 1 20 C0 19 0 19 -0.11352539 17.14233398 C-0.10828857 16.35157471 -0.10305176 15.56081543 -0.09765625 14.74609375 C-0.09515869 13.9770874 -0.09266113 13.20808105 -0.09008789 12.41577148 C-0.07643188 10.9415271 -0.07643188 10.9415271 -0.0625 9.4375 C-0.041875 6.323125 -0.02125 3.20875 0 0 Z " fill="#BADDE9" transform="translate(669,133)"/>
<path d="M0 0 C-0.28277618 2.89695169 -0.57587413 5.7922295 -0.875 8.6875 C-0.95363281 9.50412109 -1.03226563 10.32074219 -1.11328125 11.16210938 C-2.18239796 21.31871811 -2.18239796 21.31871811 -6.5 25.3125 C-9.58892627 28.63309574 -10.31796695 31.65402193 -11 36 C-11.11085938 36.64453125 -11.22171875 37.2890625 -11.3359375 37.953125 C-12.05139952 43.0193696 -12.19099638 48.13990487 -12.3125 53.25 C-12.35721436 54.27867187 -12.35721436 54.27867187 -12.40283203 55.328125 C-12.44384184 58.90208596 -12.38696544 60.57805463 -9.92578125 63.26171875 C-6.75116478 67.77572716 -8.11711157 72.30628241 -8.875 77.5625 C-8.98585938 78.60341797 -9.09671875 79.64433594 -9.2109375 80.71679688 C-10.23744879 88.39095583 -10.23744879 88.39095583 -13.98828125 91.38671875 C-14.98214844 91.91910156 -15.97601562 92.45148438 -17 93 C-20.23114455 98.70097834 -21.73930089 105.48252213 -22 112 C-22.06316406 113.29035156 -22.12632812 114.58070313 -22.19140625 115.91015625 C-22.2353144 117.35666761 -22.27563296 118.80329206 -22.3125 120.25 C-22.3424707 120.94826904 -22.37244141 121.64653809 -22.40332031 122.3659668 C-22.44310126 125.95187315 -22.27703486 127.65919889 -19.98046875 130.484375 C-19.32691406 130.98453125 -18.67335938 131.4846875 -18 132 C-18.71240526 134.61215261 -19.42680917 137.22348133 -20.15234375 139.83203125 C-20.70627283 141.90224545 -21.22117229 143.98340449 -21.69140625 146.07421875 C-23.44222539 153.56772468 -23.44222539 153.56772468 -26.5 155.9375 C-27.325 156.288125 -28.15 156.63875 -29 157 C-32.75095634 161.28910084 -34.03644561 166.35291605 -35.75 171.6875 C-36.07871094 172.64333984 -36.40742187 173.59917969 -36.74609375 174.58398438 C-39.11884468 181.92749832 -39.12689154 187.38998917 -37.3125 194.8125 C-37 197 -37 197 -39 201 C-44.94 201 -50.88 201 -57 201 C-55.8098062 195.30448722 -54.38497163 189.76926174 -52.69116211 184.20410156 C-44.48527186 157.1992213 -39.26838297 129.8461175 -35 102 C-34.83516113 100.94377441 -34.67032227 99.88754883 -34.50048828 98.79931641 C-29.50767892 66.46680407 -28.00861485 33.61792459 -26 1 C-23.45844946 0.83266365 -20.91678332 0.66763649 -18.375 0.50390625 C-17.66214844 0.45673462 -16.94929687 0.40956299 -16.21484375 0.36096191 C-10.80378587 0.01501412 -5.42255943 -0.11731499 0 0 Z " fill="#BBDDE8" transform="translate(826,130)"/>
<path d="M0 0 C2.87506421 -0.02712325 5.74986908 -0.04689851 8.625 -0.0625 C9.83736328 -0.07506836 9.83736328 -0.07506836 11.07421875 -0.08789062 C12.26337891 -0.09272461 12.26337891 -0.09272461 13.4765625 -0.09765625 C14.5605835 -0.10551147 14.5605835 -0.10551147 15.66650391 -0.11352539 C18.49610363 0.02413561 21.21506324 0.49380709 24 1 C24.03440186 2.29768311 24.06880371 3.59536621 24.10424805 4.93237305 C25.601135 59.04307123 29.82802291 112.58501879 41.5625 165.5 C41.83809753 166.75159409 41.83809753 166.75159409 42.1192627 168.0284729 C44.19732822 177.37663045 46.60890109 186.35543767 50.06225586 195.29492188 C51 198 51 198 51 201 C44.73 201 38.46 201 32 201 C31.34 198.69 30.68 196.38 30 194 C30.98560611 192.65599167 31.98758315 191.32392972 33 190 C33.49893913 182.8813332 32.22672773 176.98010491 30.1875 170.1875 C29.92646484 169.26001953 29.66542969 168.33253906 29.39648438 167.37695312 C28.11851487 163.00030201 27.07896701 159.46962542 24 156 C23.16082031 155.74605469 22.32164062 155.49210938 21.45703125 155.23046875 C19 154 19 154 17.63671875 150.55078125 C17.29839946 149.14310765 16.98272549 147.72983794 16.6875 146.3125 C16.51927734 145.61705078 16.35105469 144.92160156 16.17773438 144.20507812 C13.66061663 133.20167768 13.66061663 133.20167768 16.48046875 128.56640625 C18.55091937 125.06952692 18.40889669 121.88008044 18.3125 117.9375 C18.3019458 117.18815186 18.2913916 116.43880371 18.28051758 115.66674805 C17.97415746 102.69772507 17.97415746 102.69772507 13 91 C12.16726563 90.61457031 11.33453125 90.22914063 10.4765625 89.83203125 C8 88 8 88 7.07421875 84.453125 C6.9218993 83.05443513 6.79374471 81.65294214 6.6875 80.25 C6.61466797 79.5590625 6.54183594 78.868125 6.46679688 78.15625 C5.27973628 66.1273693 5.27973628 66.1273693 7.4375 62.75 C7.953125 62.1725 8.46875 61.595 9 61 C11.59780762 53.20657713 9.94737804 44.06438819 9.1875 36 C9.11748779 35.175 9.04747559 34.35 8.9753418 33.5 C8.40258385 27.65082358 8.40258385 27.65082358 5 23 C3.94039062 22.51853516 3.94039062 22.51853516 2.859375 22.02734375 C1 21 1 21 0.390625 19.00390625 C0.34421875 18.19824219 0.2978125 17.39257812 0.25 16.5625 C0.19457031 15.67949219 0.13914062 14.79648438 0.08203125 13.88671875 C-0.04957385 9.25547264 -0.07926142 4.63238993 0 0 Z " fill="#BCDEE9" transform="translate(591,130)"/>
<path d="M0 0 C0.74121094 0.00322266 1.48242188 0.00644531 2.24609375 0.00976562 C3.36177734 0.02233398 3.36177734 0.02233398 4.5 0.03515625 C5.27472656 0.03966797 6.04945313 0.04417969 6.84765625 0.04882812 C8.73180524 0.06045867 10.61591365 0.07838719 12.5 0.09765625 C12.71212121 14.4511916 12.71212121 14.4511916 11.5 19.09765625 C9.625 20.16015625 9.625 20.16015625 7.5 21.09765625 C3.36097068 26.86416797 4.05691579 33.31012857 4.125 40.16015625 C4.11339844 41.33126953 4.10179687 42.50238281 4.08984375 43.70898438 C4.09564453 45.4037793 4.09564453 45.4037793 4.1015625 47.1328125 C4.10494629 48.15769775 4.10833008 49.18258301 4.11181641 50.23852539 C4.6884938 54.48599013 6.50924777 57.10690402 9.5 60.09765625 C10.31583163 68.13599729 10.06584501 77.38813129 7.5 85.09765625 C6.1015625 86.640625 6.1015625 86.640625 4.5 87.78515625 C0.83925844 90.60697787 0.52080666 92.1857822 -0.19921875 96.5859375 C-0.29847656 97.41480469 -0.39773438 98.24367188 -0.5 99.09765625 C-0.60957031 99.95746094 -0.71914063 100.81726563 -0.83203125 101.703125 C-1.1348376 104.50105566 -1.33386056 107.28838933 -1.5 110.09765625 C-1.57734375 111.13921875 -1.6546875 112.18078125 -1.734375 113.25390625 C-2.16345033 119.71058222 -2.16345033 119.71058222 1 125.09765625 C4.36159456 129.13156972 4.03329097 131.87534464 3.78515625 136.984375 C3.69105469 138.01175781 3.59695313 139.03914062 3.5 140.09765625 C3.41621094 141.05285156 3.33242188 142.00804687 3.24609375 142.9921875 C2.89150027 145.54152801 2.50059738 147.72534792 1.5 150.09765625 C-1.4375 151.72265625 -1.4375 151.72265625 -4.5 153.09765625 C-7.05925713 158.69332014 -8.14370776 163.94610059 -8.75 170.03515625 C-8.84023438 170.78216797 -8.93046875 171.52917969 -9.0234375 172.29882812 C-9.58719304 177.56812382 -9.88859605 182.93242019 -8.5 188.09765625 C-7.8090625 188.78859375 -7.118125 189.47953125 -6.40625 190.19140625 C-4.5 192.09765625 -4.5 192.09765625 -4.40625 195.56640625 C-4.57772851 196.91378526 -4.77716753 198.25781269 -5 199.59765625 C-5.103125 200.30164551 -5.20625 201.00563477 -5.3125 201.73095703 C-7.81267684 217.41033309 -7.81267684 217.41033309 -12.5 222.09765625 C-12.5 149.16765625 -12.5 76.23765625 -12.5 1.09765625 C-3.5 -0.02734375 -3.5 -0.02734375 0 0 Z " fill="#BADEE9" transform="translate(733.5,132.90234375)"/>
<path d="M0 0 C1.00090639 15.67490901 1.11531128 31.29637821 1 47 C-20.00434619 47.58306638 -40.98571839 48.14593251 -62 48 C-62 35.46 -62 22.92 -62 10 C-49.97115707 7.27648839 -37.99025597 4.70702374 -25.8125 2.75 C-24.3111853 2.50588379 -24.3111853 2.50588379 -22.77954102 2.25683594 C-15.26806213 1.08466446 -7.61669726 0 0 0 Z " fill="#35843C" transform="translate(631,66)"/>
<path d="M0 0 C-1.41925781 0.69222656 -1.41925781 0.69222656 -2.8671875 1.3984375 C-27.72359918 13.61318787 -51.39550306 27.60078284 -73 45 C-73.71526855 45.57250488 -74.43053711 46.14500977 -75.16748047 46.73486328 C-88.82947431 57.70260175 -101.46263968 69.39226778 -113.875 81.75 C-114.76735352 82.6376001 -115.65970703 83.5252002 -116.57910156 84.43969727 C-121.59327301 89.46657831 -126.39478817 94.59741934 -131 100 C-131.86882812 100.98742187 -132.73765625 101.97484375 -133.6328125 102.9921875 C-149.60229192 121.46472012 -165.44988853 142.85575561 -176 165 C-176.66 165 -177.32 165 -178 165 C-167.21336709 123.87596202 -139.86130078 86.48690375 -106.81640625 60.2578125 C-104.35009221 58.28065645 -101.9534523 56.24287435 -99.56811523 54.16943359 C-86.96994105 43.26788415 -73.46306385 33.28385031 -59 25 C-58.33178223 24.61392578 -57.66356445 24.22785156 -56.97509766 23.83007812 C-42.63505872 15.57320415 -28.04758465 8.44403814 -12.625 2.4375 C-11.71451904 2.07833496 -10.80403809 1.71916992 -9.8659668 1.34912109 C-8.59039917 0.86499756 -8.59039917 0.86499756 -7.2890625 0.37109375 C-6.53318848 0.08161865 -5.77731445 -0.20785645 -4.99853516 -0.50610352 C-3 -1 -3 -1 0 0 Z " fill="#0E371F" transform="translate(322,111)"/>
<path d="M0 0 C0.33 0.66 0.66 1.32 1 2 C0.24658203 3.59716797 0.24658203 3.59716797 -0.9921875 5.4921875 C-1.4454541 6.19134277 -1.8987207 6.89049805 -2.36572266 7.61083984 C-2.86378418 8.3580127 -3.3618457 9.10518555 -3.875 9.875 C-4.37950684 10.64150879 -4.88401367 11.40801758 -5.40380859 12.19775391 C-9.69475114 18.66053816 -14.2024928 24.90117981 -19 31 C-19.68191406 31.87527344 -20.36382812 32.75054687 -21.06640625 33.65234375 C-27.59814577 41.84408337 -34.76234549 49.43549745 -42 57 C-42.90234375 57.94488281 -43.8046875 58.88976562 -44.734375 59.86328125 C-49.62959245 64.87542269 -54.76335508 69.36665148 -60.23828125 73.734375 C-62.97310626 75.97793724 -65.54546201 78.33046361 -68.125 80.75 C-75.33119816 87.37024482 -83.14835084 93.1731526 -91 99 C-91.91120605 99.6811084 -91.91120605 99.6811084 -92.84082031 100.37597656 C-106.70488105 110.7016096 -121.38933179 119.62377748 -137.00244141 127.04394531 C-139.03656837 128.01750205 -141.05558074 129.01820675 -143.07421875 130.0234375 C-157.34089106 137.04682342 -172.05483471 142.22442586 -187.5 146 C-188.83562988 146.33004028 -188.83562988 146.33004028 -190.19824219 146.66674805 C-191.44589355 146.95545776 -191.44589355 146.95545776 -192.71875 147.25 C-193.45029297 147.42015625 -194.18183594 147.5903125 -194.93554688 147.765625 C-197.21580231 148.02449979 -198.82537688 147.68646502 -201 147 C-199.88496094 146.58621094 -198.76992187 146.17242187 -197.62109375 145.74609375 C-146.4160705 126.51473992 -102.08377962 97.72075755 -60.23876953 62.84179688 C-58.67525073 61.55551707 -57.0967602 60.28731637 -55.50732422 59.03320312 C-48.24314521 53.25575148 -41.65877047 46.9669893 -35.12890625 40.38964844 C-33.37718425 38.62719762 -31.61500572 36.87571432 -29.8515625 35.125 C-23.11208068 28.39415225 -16.86632621 21.51595028 -11 14 C-10.4318457 13.28489258 -9.86369141 12.56978516 -9.27832031 11.83300781 C-7.82283691 9.99933509 -6.37794057 8.15799989 -4.9375 6.3125 C-4.21143555 5.3853418 -4.21143555 5.3853418 -3.47070312 4.43945312 C-2.31273798 2.96046794 -1.15619868 1.48036654 0 0 Z " fill="#0F371E" transform="translate(403,206)"/>
<path d="M0 0 C0 9.9 0 19.8 0 30 C-9.54253142 30.07634025 -19.03121572 30.04339869 -28.5625 29.5625 C-29.80253784 29.50364624 -29.80253784 29.50364624 -31.06762695 29.44360352 C-36.87605319 29.12394681 -36.87605319 29.12394681 -38 28 C-39.65387501 19.17933329 -39.09325702 9.93195032 -39 1 C-26.00123153 -0.30220221 -13.0533444 -0.07017927 0 0 Z " fill="#BCDFEB" transform="translate(696,411)"/>
<path d="M0 0 C4.14021441 -0.02519558 8.28038523 -0.04308741 12.4206543 -0.05493164 C13.82170389 -0.05988235 15.22274856 -0.06664464 16.6237793 -0.07543945 C26.4654056 -0.13555718 36.18707279 0.21393783 46 1 C45.69140975 3.77132017 45.3782967 6.54199986 45.0625 9.3125 C44.97548828 10.09818359 44.88847656 10.88386719 44.79882812 11.69335938 C44.71181641 12.45068359 44.62480469 13.20800781 44.53515625 13.98828125 C44.456604 14.68477783 44.37805176 15.38127441 44.29711914 16.09887695 C44 18 44 18 43 21 C33.65369875 22.67496438 24.31952366 24.18226372 14.875 25.1875 C14.10696045 25.27112793 13.3389209 25.35475586 12.54760742 25.44091797 C7.67416954 25.93425608 2.89810199 26.07219425 -2 26 C-2.23930587 19.60521543 -1.89559125 13.43189752 -0.9921875 7.09765625 C-0.89736084 6.41127075 -0.80253418 5.72488525 -0.70483398 5.0177002 C-0.47321718 3.34466938 -0.23708131 1.67226521 0 0 Z " fill="#BADEEA" transform="translate(770,413)"/>
<path d="M0 0 C0.34147989 2.45743564 0.67325685 4.91559546 1 7.375 C1.09539063 8.05433594 1.19078125 8.73367188 1.2890625 9.43359375 C2.01393835 14.97371634 2.10416159 20.41722797 2 26 C-8.73588221 25.62812912 -19.44535348 25.20349769 -30.125 24 C-30.86347168 23.9170166 -31.60194336 23.8340332 -32.36279297 23.74853516 C-35.63687675 23.35779456 -38.82886341 22.92012253 -42 22 C-43.6120509 15.23514355 -44.26618595 8.95041086 -44 2 C-29.31559427 -0.12487525 -14.81844517 -0.22384358 0 0 Z " fill="#BBDDE9" transform="translate(645,413)"/>
<path d="M0 0 C0.12577692 5.40840748 -0.24594899 10.22974497 -1.3125 15.5625 C-1.44567627 16.23925781 -1.57885254 16.91601562 -1.71606445 17.61328125 C-2.13696379 19.74366804 -2.56827209 21.87178424 -3 24 C-3.28975805 25.45689309 -3.57882668 26.91392347 -3.8671875 28.37109375 C-4.57017492 31.91568233 -5.28250371 35.4583162 -6 39 C-13.52147023 37.91560059 -20.9352241 36.70407667 -28.3125 34.875 C-29.06466797 34.69324219 -29.81683594 34.51148438 -30.59179688 34.32421875 C-32.39569813 33.88760571 -34.19803964 33.44455549 -36 33 C-35.35878726 23.93865155 -34.26519458 14.99147995 -33 6 C-32.23333008 5.85377197 -31.46666016 5.70754395 -30.67675781 5.55688477 C-27.20094751 4.89325876 -23.72547134 4.22789879 -20.25 3.5625 C-19.0434375 3.33240234 -17.836875 3.10230469 -16.59375 2.86523438 C-14.85351562 2.53168945 -14.85351562 2.53168945 -13.078125 2.19140625 C-12.00981445 1.98717041 -10.94150391 1.78293457 -9.84082031 1.57250977 C-8.15398876 1.23256305 -6.47216864 0.86169408 -4.80761719 0.42553711 C-3 0 -3 0 0 0 Z " fill="#BADDE8" transform="translate(865,371)"/>
<path d="M0 0 C12.21 0 24.42 0 37 0 C37 24 37 24 35 28 C23.45 28 11.9 28 0 28 C0 18.76 0 9.52 0 0 Z " fill="#BADEEB" transform="translate(721,412)"/>
<path d="M0 0 C0.57540527 0.1853833 1.15081055 0.3707666 1.74365234 0.56176758 C8.62865425 2.71120168 15.55769808 4.2663111 22.625 5.6875 C24.27435547 6.02491211 24.27435547 6.02491211 25.95703125 6.36914062 C28.63722051 6.91683147 31.31817849 7.46036909 34 8 C34.34012937 10.64511322 34.67221424 13.29085147 35 15.9375 C35.09539063 16.67291016 35.19078125 17.40832031 35.2890625 18.16601562 C35.93895198 23.48118315 36.08508197 28.64515381 36 34 C32.10590112 34.84158017 28.20946688 35.6718106 24.3125 36.5 C23.20970703 36.73847656 22.10691406 36.97695313 20.97070312 37.22265625 C19.90400391 37.44824219 18.83730469 37.67382812 17.73828125 37.90625 C16.75899658 38.11572266 15.77971191 38.32519531 14.77075195 38.54101562 C12.12044367 38.9800481 9.68006268 39.08555667 7 39 C4.58071124 32.40277388 3.03347272 25.8500109 1.8125 18.9375 C1.63525391 17.99583984 1.45800781 17.05417969 1.27539062 16.08398438 C0.29246053 10.63043013 -0.18922762 5.53980171 0 0 Z " fill="#BBDDE8" transform="translate(550,370)"/>
<path d="M0 0 C32.36603367 1.83148407 32.36603367 1.83148407 43.98046875 3.5 C50.62018113 4.4014937 57.3367481 4.76715426 64.01953125 5.21484375 C65.00953125 5.28832031 65.99953125 5.36179687 67.01953125 5.4375 C67.90745361 5.49808594 68.79537598 5.55867188 69.71020508 5.62109375 C72 6 72 6 75 8 C54.2987725 14.52596836 32.99284117 16.87901893 11.5 19.25 C10.70218109 19.33903595 9.90436218 19.4280719 9.08236694 19.51980591 C0.70252417 20.44633743 -7.55452758 21.23647323 -16 21 C-15.27167969 20.30003906 -14.54335938 19.60007812 -13.79296875 18.87890625 C-11.01432942 16.09830806 -8.66155408 13.09217194 -6.3125 9.9375 C-5.54550781 8.91527344 -4.77851562 7.89304687 -3.98828125 6.83984375 C-2.40167436 4.57370778 -1.18913007 2.47472984 0 0 Z " fill="#BBDCE6" transform="translate(793,344)"/>
<path d="M0 0 C0.77472656 0.00451172 1.54945313 0.00902344 2.34765625 0.01367188 C4.23180524 0.02530242 6.11591365 0.04323094 8 0.0625 C7.48325133 7.85452596 6.52065682 15.40450984 5 23.0625 C-5.18212717 23.20644525 -15.22466259 22.77455286 -25.375 22.0625 C-26.80465854 21.96571712 -28.23434604 21.86936097 -29.6640625 21.7734375 C-33.10972106 21.541351 -36.55495773 21.30358243 -40 21.0625 C-40.19818283 14.35731414 -40.30844801 8.41073202 -38 2.0625 C-37.40574219 2.03744385 -36.81148437 2.0123877 -36.19921875 1.98657227 C-33.46598993 1.86941112 -30.73300633 1.74723727 -28 1.625 C-27.06542969 1.58568359 -26.13085938 1.54636719 -25.16796875 1.50585938 C-21.04289144 1.31835586 -16.96630845 1.10303877 -12.875 0.53125 C-8.54641043 0.00763029 -4.35230686 -0.04902945 0 0 Z " fill="#BBDDE8" transform="translate(812,378.9375)"/>
<path d="M0 0 C23.265 1.485 23.265 1.485 47 3 C47 9.27 47 15.54 47 22 C31.99370934 22.62248317 17.02046425 23.17671134 2 23 C1.66227261 20.29215006 1.32969313 17.58383004 1 14.875 C0.90460937 14.11445313 0.80921875 13.35390625 0.7109375 12.5703125 C0.57558594 11.44882812 0.57558594 11.44882812 0.4375 10.3046875 C0.35371094 9.62390137 0.26992188 8.94311523 0.18359375 8.24169922 C-0.04070773 5.50295433 0 2.74791462 0 0 Z " fill="#B8DCE9" transform="translate(596,379)"/>
<path d="M0 0 C1.6484375 2.29296875 1.6484375 2.29296875 3.375 5.1875 C6.78313014 10.73110409 10.36924334 15.42247043 15 20 C-12.81391836 19.31661134 -41.02167404 15.85830836 -68 9 C-68 8.34 -68 7.68 -68 7 C-52.40645046 4.32103637 -36.79562298 2.32127202 -21.0625 0.6875 C-19.75162918 0.54822083 -19.75162918 0.54822083 -18.41427612 0.40612793 C-15.91360567 0.1421234 -13.41216727 -0.11233576 -10.91015625 -0.36328125 C-10.15497711 -0.44324844 -9.39979797 -0.52321564 -8.62173462 -0.60560608 C-5.36303506 -0.92043821 -3.14476527 -1.04825509 0 0 Z " fill="#BDDFEA" transform="translate(617,345)"/>
<path d="M0 0 C0 75.57 0 151.14 0 229 C-1.65 228.34 -3.3 227.68 -5 227 C-4.34 226.67 -3.68 226.34 -3 226 C-3 152.74 -3 79.48 -3 4 C-9.6 3.67 -16.2 3.34 -23 3 C-23.33 2.34 -23.66 1.68 -24 1 C-16.23212582 -0.94196855 -8.00694143 0 0 0 Z " fill="#B1D1D5" transform="translate(696,133)"/>
<path d="M0 0 C13.2 0 26.4 0 40 0 C40 5.28 40 10.56 40 16 C12.73348519 17.14806378 12.73348519 17.14806378 0 17 C0 11.39 0 5.78 0 0 Z " fill="#BCDDE7" transform="translate(656,383)"/>
<path d="M0 0 C-0.33 5.61 -0.66 11.22 -1 17 C-13.54 17 -26.08 17 -39 17 C-39 11.72 -39 6.44 -39 1 C-34.75009666 0.83048819 -30.50010474 0.66431962 -26.25 0.5 C-25.06277344 0.45230469 -23.87554688 0.40460938 -22.65234375 0.35546875 C-15.09491993 0.06638696 -7.56294402 -0.04625654 0 0 Z " fill="#B9DEEB" transform="translate(760,382)"/>
<path d="M0 0 C2.94921875 0.5703125 2.94921875 0.5703125 4.37011719 2.16308594 C5.86897838 4.45490658 7.20423497 6.78924393 8.51171875 9.1953125 C9.42498288 10.81516146 10.34288371 12.43240588 11.265625 14.046875 C11.92715576 15.20558105 11.92715576 15.20558105 12.60205078 16.38769531 C14.45679477 19.39266293 16.59700299 21.94161569 18.94921875 24.5703125 C9.55657399 25.47927812 4.34127273 22.18252735 -2.80078125 16.30859375 C-10.37560121 9.64759655 -10.37560121 9.64759655 -13.05078125 5.5703125 C-13.05078125 4.9103125 -13.05078125 4.2503125 -13.05078125 3.5703125 C-13.71078125 3.5703125 -14.37078125 3.5703125 -15.05078125 3.5703125 C-15.05078125 2.9103125 -15.05078125 2.2503125 -15.05078125 1.5703125 C-13.17606937 1.40043569 -11.3009943 1.23456474 -9.42578125 1.0703125 C-8.38164063 0.9775 -7.3375 0.8846875 -6.26171875 0.7890625 C-3.06196854 0.63372049 -3.06196854 0.63372049 0 0 Z " fill="#BCDCE5" transform="translate(644.05078125,341.4296875)"/>
<path d="M0 0 C0.66 5.28 1.32 10.56 2 16 C-5.03014152 15.70295177 -11.34024919 14.53427485 -18.0625 12.5625 C-18.81265381 12.34505127 -19.56280762 12.12760254 -20.33569336 11.90356445 C-25.73913662 10.26086338 -25.73913662 10.26086338 -28 8 C-27.91015625 5.98046875 -27.91015625 5.98046875 -27 4 C-18.83526426 -0.12215703 -8.92148711 -0.13939824 0 0 Z " fill="#B7D8E2" transform="translate(589,417)"/>
<path d="M0 0 C2.30842138 -0.11765106 4.53303311 -0.05028817 6.83935547 0.09887695 C7.63212891 0.12594727 8.42490234 0.15301758 9.24169922 0.1809082 C11.19208913 0.25140422 13.14107448 0.35902196 15.08935547 0.47387695 C13.60417452 5.48052467 10.65828208 8.40886946 7.02685547 11.97387695 C6.44121826 12.54976563 5.85558105 13.1256543 5.25219727 13.71899414 C-2.2223356 20.89110111 -8.41260145 24.23279454 -18.91064453 24.47387695 C-18.06501953 23.54575195 -17.21939453 22.61762695 -16.34814453 21.66137695 C-13.00348392 17.7711334 -10.3156932 13.57734769 -7.62158203 9.2199707 C-7.05697266 8.31375977 -6.49236328 7.40754883 -5.91064453 6.47387695 C-5.36150391 5.37946289 -4.81236328 4.28504883 -4.24658203 3.1574707 C-1.91064453 0.47387695 -1.91064453 0.47387695 0 0 Z " fill="#BDDDE6" transform="translate(764.91064453125,342.526123046875)"/>
<path d="M0 0 C3.39741967 0.61657042 6.79259528 1.24474119 10.1875 1.875 C11.62706055 2.13603516 11.62706055 2.13603516 13.09570312 2.40234375 C14.49272461 2.66337891 14.49272461 2.66337891 15.91796875 2.9296875 C16.77156982 3.08679199 17.6251709 3.24389648 18.50463867 3.40576172 C21.1358773 4.03235744 23.51589335 4.93788392 26 6 C26 7.32 26 8.64 26 10 C21.33333333 11.33333333 16.66666667 12.66666667 12 14 C10.83597656 14.37382812 9.67195312 14.74765625 8.47265625 15.1328125 C4.84962064 16.03755255 1.7186307 16.15178084 -2 16 C-1.85936865 13.70800823 -1.71234057 11.41640814 -1.5625 9.125 C-1.48128906 7.84882813 -1.40007813 6.57265625 -1.31640625 5.2578125 C-1 2 -1 2 0 0 Z " fill="#BCDEE8" transform="translate(827,416)"/>
<path d="M0 0 C0.495 0.99 0.495 0.99 1 2 C0.12646484 3.79321289 0.12646484 3.79321289 -1.2890625 5.97265625 C-1.81226074 6.78186523 -2.33545898 7.59107422 -2.87451172 8.42480469 C-3.74100342 9.73046387 -3.74100342 9.73046387 -4.625 11.0625 C-5.21168457 11.95485352 -5.79836914 12.84720703 -6.40283203 13.76660156 C-14.10046171 25.33664585 -22.37040218 36.93465872 -32 47 C-32.33 47 -32.66 47 -33 47 C-32.25 40.375 -32.25 40.375 -30 37 C-32.64 39.64 -35.28 42.28 -38 45 C-38 42 -38 42 -36.30688477 39.99804688 C-35.52627686 39.24587891 -34.74566895 38.49371094 -33.94140625 37.71875 C-33.08442139 36.88182617 -32.22743652 36.04490234 -31.34448242 35.18261719 C-30.42642822 34.29735352 -29.50837402 33.41208984 -28.5625 32.5 C-21.54004278 25.61449144 -15.02811251 18.76956723 -9 11 C-7.15855282 8.86478109 -5.29187978 6.75595096 -3.41015625 4.65625 C-1.81153774 2.84410377 -1.81153774 2.84410377 0 0 Z " fill="#113221" transform="translate(470,311)"/>
<path d="M0 0 C0.33 0 0.66 0 1 0 C0.89884205 1.67663926 0.797342 3.35325842 0.69433594 5.02978516 C0.60581599 6.47856167 0.51925457 7.92745907 0.43457031 9.37646484 C0.22558516 12.84607609 -0.03034191 16.28809796 -0.39453125 19.74609375 C-1.37680084 27.81013252 -1.37680084 27.81013252 2 35 C2.66 35.33 3.32 35.66 4 36 C1.94224629 55.51234693 1.94224629 55.51234693 -1 62 C-1.99 62.495 -1.99 62.495 -3 63 C-3 42.87 -3 22.74 -3 2 C-2.34 2 -1.68 2 -1 2 C-0.67 1.34 -0.34 0.68 0 0 Z " fill="#C4E3EB" transform="translate(725,289)"/>
<path d="M0 0 C0.74121094 0.00322266 1.48242188 0.00644531 2.24609375 0.00976562 C3.36177734 0.02233398 3.36177734 0.02233398 4.5 0.03515625 C5.27472656 0.03966797 6.04945313 0.04417969 6.84765625 0.04882812 C8.73180524 0.06045867 10.61591365 0.07838719 12.5 0.09765625 C12.68451025 12.76736012 12.68451025 12.76736012 11.5 18.09765625 C10.84 17.76765625 10.18 17.43765625 9.5 17.09765625 C9.83 12.14765625 10.16 7.19765625 10.5 2.09765625 C3.24 2.09765625 -4.02 2.09765625 -11.5 2.09765625 C-11.5 45.32765625 -11.5 88.55765625 -11.5 133.09765625 C-11.83 133.09765625 -12.16 133.09765625 -12.5 133.09765625 C-12.5 89.53765625 -12.5 45.97765625 -12.5 1.09765625 C-3.5 -0.02734375 -3.5 -0.02734375 0 0 Z " fill="#D9E4E5" transform="translate(733.5,132.90234375)"/>
<path d="M0 0 C0.8353125 0.495 0.8353125 0.495 1.6875 1 C4.30284522 2.1309601 6.1806646 2.15662974 9 2 C7.11380178 9.03645577 5.13072305 16.03359344 3 23 C0.36 22.34 -2.28 21.68 -5 21 C-4.42351925 13.64987044 -2.28953836 6.98575424 0 0 Z " fill="#BFDDE5" transform="translate(801,295)"/>
<path d="M0 0 C2.64 0.33 5.28 0.66 8 1 C7.48462048 8.13393752 6.55994099 15.01812817 5 22 C2.36 21.67 -0.28 21.34 -3 21 C-2.58169634 13.77875787 -2.04538889 6.95432222 0 0 Z " fill="#BEDBE2" transform="translate(815,231)"/>
<path d="M0 0 C2.0140956 3.0211434 2.26836596 3.80660017 2.4140625 7.23046875 C2.45273437 8.03291016 2.49140625 8.83535156 2.53125 9.66210938 C2.5621875 10.49548828 2.593125 11.32886719 2.625 12.1875 C2.66367187 13.03248047 2.70234375 13.87746094 2.7421875 14.74804688 C2.83636279 16.83167524 2.91926675 18.91580753 3 21 C-0.96 21.495 -0.96 21.495 -5 22 C-6.34495828 14.90294338 -7.24091535 8.2274605 -7 1 C-3.535 0.505 -3.535 0.505 0 0 Z " fill="#BAD9DF" transform="translate(590,164)"/>
<path d="M0 0 C0.66 0 1.32 0 2 0 C2 0.66 2 1.32 2 2 C5.465 1.505 5.465 1.505 9 1 C8.67 7.93 8.34 14.86 8 22 C5.36 22 2.72 22 0 22 C0 14.74 0 7.48 0 0 Z " fill="#C8E5ED" transform="translate(746,162)"/>
<path d="M0 0 C2.71558473 2.71558473 3.2008154 5.76041135 4.125 9.375 C4.30675781 10.04789062 4.48851562 10.72078125 4.67578125 11.4140625 C5.55136531 14.75839862 6 17.5156851 6 21 C3.36 21.66 0.72 22.32 -2 23 C-2.67218507 20.25124318 -3.33792435 17.50119274 -4 14.75 C-4.19078125 13.97269531 -4.3815625 13.19539063 -4.578125 12.39453125 C-4.75859375 11.64042969 -4.9390625 10.88632812 -5.125 10.109375 C-5.29257812 9.41811523 -5.46015625 8.72685547 -5.6328125 8.01464844 C-6 6 -6 6 -6 2 C-4.02 1.34 -2.04 0.68 0 0 Z " fill="#C2DFE7" transform="translate(610,296)"/>
<path d="M0 0 C2.97 0 5.94 0 9 0 C8.01 7.26 7.02 14.52 6 22 C3.36 21.67 0.72 21.34 -2 21 C-1.49656013 13.97326485 -0.95812032 6.98059091 0 0 Z " fill="#C6E4ED" transform="translate(735,295)"/>
<path d="M0 0 C2.64 0.33 5.28 0.66 8 1 C8 7.6 8 14.2 8 21 C5.36 21 2.72 21 0 21 C0 14.07 0 7.14 0 0 Z " fill="#C8E0E2" transform="translate(659,163)"/>
<path d="M0 0 C0.66 6.93 1.32 13.86 2 21 C-0.64 21.66 -3.28 22.32 -6 23 C-6.33695862 20.27123692 -6.66968429 17.54206837 -7 14.8125 C-7.09539063 14.04357422 -7.19078125 13.27464844 -7.2890625 12.48242188 C-7.75192894 8.63071189 -8.12467468 4.88829149 -8 1 C-2.25 0 -2.25 0 0 0 Z " fill="#C3E2E9" transform="translate(599,231)"/>
<path d="M0 0 C0.33 0 0.66 0 1 0 C1 6.93 1 13.86 1 21 C-1.64 21.66 -4.28 22.32 -7 23 C-7.33 15.74 -7.66 8.48 -8 1 C-5.69 1 -3.38 1 -1 1 C-0.67 0.67 -0.34 0.34 0 0 Z " fill="#B8DCE9" transform="translate(668,228)"/>
<path d="M0 0 C2.31 0.33 4.62 0.66 7 1 C6.03644647 14.6332574 6.03644647 14.6332574 5 21 C2.36 20.67 -0.28 20.34 -3 20 C-2.22095672 6.3667426 -2.22095672 6.3667426 0 0 Z " fill="#C3E3EC" transform="translate(825,165)"/>
<path d="M0 0 C2.64 0.33 5.28 0.66 8 1 C7.85834107 3.39614575 7.71181159 5.79182897 7.5625 8.1875 C7.50352539 9.19780273 7.50352539 9.19780273 7.44335938 10.22851562 C7.21072435 13.89699102 6.82792989 17.41694206 6 21 C3.69 20.67 1.38 20.34 -1 20 C-1.02712351 17.60408962 -1.0468982 15.20849043 -1.0625 12.8125 C-1.07087891 12.13896484 -1.07925781 11.46542969 -1.08789062 10.77148438 C-1.10606538 7.04565869 -0.89299392 3.6211958 0 0 Z " fill="#C6E3EA" transform="translate(742,230)"/>
<path d="M0 0 C8.25 0 16.5 0 25 0 C25 9.9 25 19.8 25 30 C12.61587669 30.09907299 0.35904907 29.76730238 -12 29 C-12 28.67 -12 28.34 -12 28 C-0.63077283 27.04831581 10.59036774 26.91671801 22 27 C22 18.75 22 10.5 22 2 C22.66 1.67 23.32 1.34 24 1 C16.08 1 8.16 1 0 1 C0 0.67 0 0.34 0 0 Z " fill="#93B2B4" transform="translate(671,411)"/>
<path d="M0 0 C12.21 0 24.42 0 37 0 C37 0.33 37 0.66 37 1 C25.45 1 13.9 1 2 1 C2 5.29 2 9.58 2 14 C13.22 14 24.44 14 36 14 C36.33 11.03 36.66 8.06 37 5 C37.33 5 37.66 5 38 5 C38 8.63 38 12.26 38 16 C25.46 16 12.92 16 0 16 C0 10.72 0 5.44 0 0 Z " fill="#C8DFE1" transform="translate(721,383)"/>
<path d="M0 0 C1.0390378 4.42682491 1.31592951 8.78934632 1.5625 13.3125 C1.60568359 14.05306641 1.64886719 14.79363281 1.69335938 15.55664062 C1.79870432 17.37091464 1.89978316 19.1854355 2 21 C-0.31 21.33 -2.62 21.66 -5 22 C-6.36766005 15.01563899 -7.41523944 8.09406894 -8 1 C-1.125 0 -1.125 0 0 0 Z " fill="#C9E1E5" transform="translate(673,294)"/>
<path d="M0 0 C6.6 0 13.2 0 20 0 C20 0.33 20 0.66 20 1 C14.06 1 8.12 1 2 1 C2 9.25 2 17.5 2 26 C12.56 26 23.12 26 34 26 C34.495 24.515 34.495 24.515 35 23 C35 24.65 35 26.3 35 28 C23.45 28 11.9 28 0 28 C0 18.76 0 9.52 0 0 Z " fill="#C3DBDE" transform="translate(721,412)"/>
<path d="M0 0 C-0.969375 0.47308594 -1.93875 0.94617188 -2.9375 1.43359375 C-11.09103238 5.44574704 -19.08959351 9.63313903 -26.9453125 14.20483398 C-31.79511344 17 -31.79511344 17 -34 17 C-33.42655063 14.13275314 -33.1385485 13.1385485 -31 11 C-24.42557288 6.61704859 -16.88840608 3.85049235 -9.5 1.125 C-8.3346875 0.69445312 -7.169375 0.26390625 -5.96875 -0.1796875 C-3 -1 -3 -1 0 0 Z " fill="#183B20" transform="translate(322,111)"/>
<path d="M0 0 C0.33 0 0.66 0 1 0 C0.85544536 2.3959163 0.70936226 4.79172484 0.5625 7.1875 C0.51810791 7.92436035 0.47371582 8.6612207 0.42797852 9.42041016 C0.17163467 13.58228081 -0.16173259 17.72419468 -0.5625 21.875 C-1.11261966 28.76459379 -1.10945005 35.65361131 -1.125 42.5625 C-1.12959229 43.7179834 -1.13418457 44.8734668 -1.13891602 46.06396484 C-1.13690186 47.15789551 -1.1348877 48.25182617 -1.1328125 49.37890625 C-1.13168457 50.3644751 -1.13055664 51.35004395 -1.12939453 52.36547852 C-1.09053949 54.95407428 -1.09053949 54.95407428 -0.43310547 57.21069336 C0.16804578 59.69425454 -0.71163449 60.87798622 -2 63 C-2.33 63 -2.66 63 -3 63 C-3 42.87 -3 22.74 -3 2 C-2.34 2 -1.68 2 -1 2 C-0.67 1.34 -0.34 0.68 0 0 Z " fill="#DBF1F7" transform="translate(725,289)"/>
<path d="M0 0 C0.66 0 1.32 0 2 0 C2.433125 0.9590625 2.433125 0.9590625 2.875 1.9375 C3.82823451 4.15206079 3.82823451 4.15206079 6 5 C6 4.01 6 3.02 6 2 C7.8671875 2.171875 7.8671875 2.171875 10 3 C11.1953125 5.328125 11.1953125 5.328125 12.125 8.25 C12.43695312 9.20390625 12.74890625 10.1578125 13.0703125 11.140625 C13.37710938 12.08421875 13.68390625 13.0278125 14 14 C14.65325554 15.67196873 15.31561944 17.34052856 16 19 C9.42082905 16.31959702 4.69633368 9.88372102 1 4 C0.328125 1.75390625 0.328125 1.75390625 0 0 Z " fill="#BED9E0" transform="translate(661,342)"/>
<path d="M0 0 C0.99 0 1.98 0 3 0 C3.66 0.66 4.32 1.32 5 2 C5.66 1.67 6.32 1.34 7 1 C6.06054787 7.44195749 3.13524672 10.20057224 -1.7109375 14.3984375 C-3.8986862 15.92911492 -5.39208786 16.58321039 -8 17 C-7.50628906 16.02417969 -7.01257813 15.04835938 -6.50390625 14.04296875 C-5.85666469 12.75786595 -5.20953512 11.47270675 -4.5625 10.1875 C-4.23701172 9.54490234 -3.91152344 8.90230469 -3.57617188 8.24023438 C-2.20767324 5.51734534 -0.96516735 2.89550206 0 0 Z " fill="#C1D8DB" transform="translate(737,347)"/>
<path d="M0 0 C0 0.66 0 1.32 0 2 C0.99 2.33 1.98 2.66 3 3 C-23.73303331 10.62968925 -23.73303331 10.62968925 -29 9 C-27.20703125 8.33203125 -25.4140625 7.6640625 -23.62109375 6.99609375 C-21.66955884 6.25445232 -19.72532678 5.4935381 -17.78515625 4.72265625 C-16.09712891 4.05556641 -16.09712891 4.05556641 -14.375 3.375 C-13.31023437 2.94960938 -12.24546875 2.52421875 -11.1484375 2.0859375 C-7.46230389 0.81454154 -3.91038459 0 0 0 Z " fill="#1B4021" transform="translate(231,344)"/>
<path d="M0 0 C0 5.61 0 11.22 0 17 C-1.65 17 -3.3 17 -5 17 C-5 11.72 -5 6.44 -5 1 C-1 0 -1 0 0 0 Z " fill="#B6DCE9" transform="translate(666,165)"/>
<path d="M0 0 C0.76683105 -0.00515625 1.53366211 -0.0103125 2.32373047 -0.015625 C7.67749838 0.05249838 7.67749838 0.05249838 9.9375 2.3125 C9.14690186 2.36784912 8.35630371 2.42319824 7.54174805 2.48022461 C3.90274935 2.73565356 0.26387509 2.99281635 -3.375 3.25 C-4.61830078 3.33701172 -5.86160156 3.42402344 -7.14257812 3.51367188 C-14.45788672 4.03207957 -21.76231407 4.61181041 -29.0625 5.3125 C-29.0625 4.6525 -29.0625 3.9925 -29.0625 3.3125 C-19.37873407 1.50887176 -9.87203597 0.01616048 0 0 Z " fill="#BFD5D9" transform="translate(397.0625,45.6875)"/>
<path d="M0 0 C0.66 0 1.32 0 2 0 C2 0.66 2 1.32 2 2 C3.74023438 1.89171875 3.74023438 1.89171875 5.515625 1.78125 C18.80072675 0.97989472 31.72119817 0.80062435 45 2 C45 2.33 45 2.66 45 3 C29.99458499 3.62814919 15.01984454 4.17670405 0 4 C0 2.68 0 1.36 0 0 Z " fill="#C1D6D9" transform="translate(598,398)"/>
<path d="M0 0 C0.33 0.66 0.66 1.32 1 2 C-0.01635742 3.99951172 -0.01635742 3.99951172 -1.60546875 6.4296875 C-2.17716797 7.30753906 -2.74886719 8.18539063 -3.33789062 9.08984375 C-4.25344727 10.46849609 -4.25344727 10.46849609 -5.1875 11.875 C-5.77853516 12.78636719 -6.36957031 13.69773437 -6.97851562 14.63671875 C-9.72853139 18.82459115 -12.35391425 22.53485529 -16 26 C-16.8515625 23.40234375 -16.8515625 23.40234375 -17 20 C-15.18811993 17.54703944 -13.54075246 15.65072552 -11.375 13.5625 C-7.08496929 9.277638 -3.41698173 5.02385232 0 0 Z " fill="#1B3928" transform="translate(470,311)"/>
<path d="M0 0 C0.66 1.32 1.32 2.64 2 4 C3.32 3.34 4.64 2.68 6 2 C6.33 5.96 6.66 9.92 7 14 C4.36 13.67 1.72 13.34 -1 13 C-0.67 8.71 -0.34 4.42 0 0 Z " fill="#B4D4DB" transform="translate(734,303)"/>
<path d="M0 0 C7.59 0 15.18 0 23 0 C23 5.94 23 11.88 23 18 C18.71 18 14.42 18 10 18 C10 17.67 10 17.34 10 17 C13.96 17 17.92 17 22 17 C21.67 12.05 21.34 7.1 21 2 C19.576875 2.020625 18.15375 2.04125 16.6875 2.0625 C11.08309752 2.07051774 5.56905142 1.59290281 0 1 C0 0.67 0 0.34 0 0 Z " fill="#D7EEF3" transform="translate(620,382)"/>
<path d="M0 0 C0 6.93 0 13.86 0 21 C-2.31 21 -4.62 21 -7 21 C-7 17.37 -7 13.74 -7 10 C-6.67 10 -6.34 10 -6 10 C-6 12.97 -6 15.94 -6 19 C-4.35 19 -2.7 19 -1 19 C-1.33 18.030625 -1.66 17.06125 -2 16.0625 C-3.26873752 11.70233163 -3.18385528 7.50445434 -3 3 C-4.32 2.67 -5.64 2.34 -7 2 C-1.125 0 -1.125 0 0 0 Z " fill="#CAE3E8" transform="translate(669,228)"/>
<path d="M0 0 C1.875 -0.328125 1.875 -0.328125 4 -0.25 C4.70125 -0.23453125 5.4025 -0.2190625 6.125 -0.203125 C8 0 8 0 10 1 C11.59262066 1.15175549 13.19064856 1.24900325 14.7890625 1.31640625 C15.73007812 1.35830078 16.67109375 1.40019531 17.640625 1.44335938 C18.62546875 1.48267578 19.6103125 1.52199219 20.625 1.5625 C21.61757813 1.60568359 22.61015625 1.64886719 23.6328125 1.69335938 C26.08839838 1.79961069 28.54408703 1.90164964 31 2 C31 2.33 31 2.66 31 3 C20.77 3 10.54 3 0 3 C-0.33 5.97 -0.66 8.94 -1 12 C-1.33 12 -1.66 12 -2 12 C-2.05422947 10.5629191 -2.09289723 9.12524538 -2.125 7.6875 C-2.14820313 6.88699219 -2.17140625 6.08648437 -2.1953125 5.26171875 C-2 3 -2 3 0 0 Z " fill="#314B42" transform="translate(770,410)"/>
<path d="M0 0 C0.99660645 0.04310303 1.99321289 0.08620605 3.02001953 0.13061523 C10.2450435 0.4950435 10.2450435 0.4950435 11.375 1.625 C12.72247084 1.85575082 14.07877565 2.03653063 15.4375 2.1875 C16.736875 2.331875 18.03625 2.47625 19.375 2.625 C19.375 2.955 19.375 3.285 19.375 3.625 C17.91678519 3.65292326 16.45839757 3.67179418 15 3.6875 C14.18789063 3.69910156 13.37578125 3.71070313 12.5390625 3.72265625 C9.90572997 3.64138055 7.36635174 3.4354005 4.75 3.15625 C-0.90978066 2.56067831 -6.56526729 2.29398778 -12.25 2.0625 C-13.25417969 2.01931641 -14.25835938 1.97613281 -15.29296875 1.93164062 C-17.73688383 1.82690141 -20.18087617 1.72472744 -22.625 1.625 C-22.625 1.295 -22.625 0.965 -22.625 0.625 C-15.06495803 -0.55060461 -7.61297285 -0.34270026 0 0 Z " fill="#AFC7C9" transform="translate(775.625,44.375)"/>
<path d="M0 0 C-0.33 0.99 -0.66 1.98 -1 3 C-1.99 3.33 -2.98 3.66 -4 4 C-4.86625 5.3921875 -4.86625 5.3921875 -5.75 6.8125 C-7.9649569 9.95035561 -9.74681729 11.33381279 -13.14453125 13.05078125 C-15.02411273 13.96850513 -15.02411273 13.96850513 -16.76171875 15.16796875 C-20.15533306 17.40241592 -21.82447305 18.01114457 -25.9375 17.75 C-26.948125 17.5025 -27.95875 17.255 -29 17 C-29 16.67 -29 16.34 -29 16 C-27.700625 15.79375 -26.40125 15.5875 -25.0625 15.375 C-16.43647351 13.42805985 -10.54488941 7.93203898 -4.7265625 1.5390625 C-3 0 -3 0 0 0 Z " fill="#1C392C" transform="translate(778,350)"/>
<path d="M0 0 C4.97093824 0.41153737 9.44508386 0.79600832 14 3 C14 4.32 14 5.64 14 7 C11.36 7.33 8.72 7.66 6 8 C5.34 7.01 4.68 6.02 4 5 C4.33 4.34 4.66 3.68 5 3 C2.525 2.01 2.525 2.01 0 1 C0 0.67 0 0.34 0 0 Z " fill="#CDE7EF" transform="translate(839,419)"/>
<path d="M0 0 C0.66 0 1.32 0 2 0 C2 2.97 2 5.94 2 9 C2.99 8.67 3.98 8.34 5 8 C5.33 10.97 5.66 13.94 6 17 C4.02 17 2.04 17 0 17 C0 11.39 0 5.78 0 0 Z " fill="#C0E2ED" transform="translate(669,297)"/>
<path d="M0 0 C0.99 0.495 0.99 0.495 2 1 C2 5.29 2 9.58 2 14 C2.66 14 3.32 14 4 14 C4.66 13.34 5.32 12.68 6 12 C6.33 15.3 6.66 18.6 7 22 C4.69 22 2.38 22 0 22 C0 14.74 0 7.48 0 0 Z " fill="#A2C4C9" transform="translate(746,162)"/>
<path d="M0 0 C0.99 1.485 0.99 1.485 2 3 C2.99 2.01 3.98 1.02 5 0 C5.33 0.33 5.66 0.66 6 1 C5.96777152 3.03039402 5.93188381 5.06128092 5.83984375 7.08984375 C5.81348256 9.24385229 5.81348256 9.24385229 8 11 C5.36 11.66 2.72 12.32 0 13 C0 8.71 0 4.42 0 0 Z " fill="#BBDAE0" transform="translate(593,241)"/>
<path d="M0 0 C1.31871094 0.14985352 1.31871094 0.14985352 2.6640625 0.30273438 C4.81856123 0.54862825 6.97191076 0.80455565 9.125 1.0625 C9.125 1.3925 9.125 1.7225 9.125 2.0625 C11.6 2.5575 11.6 2.5575 14.125 3.0625 C14.125 3.3925 14.125 3.7225 14.125 4.0625 C4.01373728 3.56350262 -5.87005172 2.67267136 -15.875 1.0625 C-15.875 0.7325 -15.875 0.4025 -15.875 0.0625 C-10.39099081 -1.2230956 -5.5129508 -0.66836226 0 0 Z " fill="#B1C8CB" transform="translate(586.875,357.9375)"/>
<path d="M0 0 C5.61 0 11.22 0 17 0 C17.14285714 12.85714286 17.14285714 12.85714286 16 18 C15.34 17.67 14.68 17.34 14 17 C14.33 12.05 14.66 7.1 15 2 C10.05 1.67 5.1 1.34 0 1 C0 0.67 0 0.34 0 0 Z " fill="#CAE4E8" transform="translate(729,133)"/>
<path d="M0 0 C0.33 0.33 0.66 0.66 1 1 C4.27132834 0.99087496 7.53192629 0.86664558 10.80078125 0.7421875 C14.33912679 1.0273289 15.34143366 1.80838652 18 4 C-5.99516389 3.0125055 -5.99516389 3.0125055 -15 2 C-15 1.67 -15 1.34 -15 1 C-4.96815287 -0.24840764 -4.96815287 -0.24840764 0 0 Z " fill="#446059" transform="translate(845,346)"/>
<path d="M0 0 C0.66 0 1.32 0 2 0 C2.77928328 2.57762932 3.52338898 5.15752364 4.25 7.75 C4.47429688 8.47960937 4.69859375 9.20921875 4.9296875 9.9609375 C5.515625 12.109375 5.515625 12.109375 6 16 C4.109375 18.515625 4.109375 18.515625 2 20 C1.66254646 17.60468244 1.3299171 15.20885732 1 12.8125 C0.90460937 12.13896484 0.80921875 11.46542969 0.7109375 10.77148438 C0.21675387 7.15335423 -0.11346131 3.65203599 0 0 Z " fill="#1F4031" transform="translate(535,363)"/>
<path d="M0 0 C2.30142435 1.78174788 3.80034391 3.16304165 4.48828125 6.046875 C4.72323102 8.0246611 4.86751458 10.01271872 5 12 C2.36 12.66 -0.28 13.32 -3 14 C-3 12.68 -3 11.36 -3 10 C-2.34 10 -1.68 10 -1 10 C-0.37542727 6.56484998 0 3.50935186 0 0 Z " fill="#BCDCE3" transform="translate(611,305)"/>
<path d="M0 0 C0.33 0 0.66 0 1 0 C1 4.29 1 8.58 1 13 C1.66 13 2.32 13 3 13 C3 10.69 3 8.38 3 6 C3.99 5.67 4.98 5.34 6 5 C6 8.63 6 12.26 6 16 C3.03 15.505 3.03 15.505 0 15 C0 10.05 0 5.1 0 0 Z " fill="#B3D0D7" transform="translate(741,235)"/>
<path d="M0 0 C11.55 0.33 23.1 0.66 35 1 C35 1.33 35 1.66 35 2 C23.78 2.33 12.56 2.66 1 3 C0.67 2.01 0.34 1.02 0 0 Z " fill="#12422A" transform="translate(379,49)"/>
<path d="M0 0 C1.24898071 0.07069702 1.24898071 0.07069702 2.52319336 0.14282227 C3.871875 0.21533203 3.871875 0.21533203 5.24780273 0.28930664 C6.19333008 0.34538086 7.13885742 0.40145508 8.11303711 0.45922852 C9.53712891 0.53753906 9.53712891 0.53753906 10.98999023 0.61743164 C13.34380663 0.74754209 15.6972441 0.88251963 18.05053711 1.02172852 C18.05053711 1.35172852 18.05053711 1.68172852 18.05053711 2.02172852 C5.69919357 2.84810275 -6.57151349 3.14523355 -18.94946289 3.02172852 C-18.94946289 2.69172852 -18.94946289 2.36172852 -18.94946289 2.02172852 C-17.80606445 1.96114258 -16.66266602 1.90055664 -15.48461914 1.83813477 C-13.99371984 1.75374424 -12.50283514 1.6690955 -11.01196289 1.58422852 C-10.2572168 1.54491211 -9.5024707 1.5055957 -8.72485352 1.46508789 C-5.54344163 1.27962442 -2.82785655 0.031519 0 0 Z " fill="#3F5A54" transform="translate(755.949462890625,450.978271484375)"/>
<path d="M0 0 C7.26 0 14.52 0 22 0 C23.07396066 4.29584263 23.07329796 7.60212211 23 12 C22.01 12.33 21.02 12.66 20 13 C20 9.04 20 5.08 20 1 C13.4 1 6.8 1 0 1 C0 0.67 0 0.34 0 0 Z " fill="#B1D8E3" transform="translate(735,414)"/>
<path d="M0 0 C0.79921875 0.01804687 1.5984375 0.03609375 2.421875 0.0546875 C3.02515625 0.07789063 3.6284375 0.10109375 4.25 0.125 C5.57286246 5.08573422 5.33893197 10.03611512 5.25 15.125 C3.93 14.795 2.61 14.465 1.25 14.125 C2.24 14.125 3.23 14.125 4.25 14.125 C3.59 10.165 2.93 6.205 2.25 2.125 C-1.38 2.125 -5.01 2.125 -8.75 2.125 C-5.00631258 0.25315629 -3.9099209 -0.11499767 0 0 Z " fill="#D0E8EB" transform="translate(584.75,416.875)"/>
<path d="M0 0 C0 0.33 0 0.66 0 1 C-2.83275953 1.33896268 -5.66604661 1.67129694 -8.5 2 C-9.68722656 2.14308594 -9.68722656 2.14308594 -10.8984375 2.2890625 C-15.97029404 2.87107882 -20.89493859 3.09367085 -26 3 C-19.85122289 -3.14877711 -7.821183 -0.92013918 0 0 Z " fill="#B4CACD" transform="translate(639,46)"/>
<path d="M0 0 C1.85772162 0.08984301 3.71247985 0.24611861 5.5625 0.4375 C7.08037109 0.59025391 7.08037109 0.59025391 8.62890625 0.74609375 C9.80259766 0.87177734 9.80259766 0.87177734 11 1 C11 2.98 11 4.96 11 7 C9.55903414 6.57405412 8.12231288 6.13373367 6.6875 5.6875 C5.88699219 5.44386719 5.08648437 5.20023437 4.26171875 4.94921875 C1.90035427 3.95817977 0.66120007 2.91925057 -1 1 C-0.67 0.67 -0.34 0.34 0 0 Z " fill="#1D4430" transform="translate(171,464)"/>
<path d="M0 0 C0.33 0 0.66 0 1 0 C1.19148936 19.34042553 1.19148936 19.34042553 0 29 C-0.33 29 -0.66 29 -1 29 C-1.19590444 25.52125243 -1.38031592 22.04199096 -1.5625 18.5625 C-1.61857422 17.56927734 -1.67464844 16.57605469 -1.73242188 15.55273438 C-1.78076172 14.60849609 -1.82910156 13.66425781 -1.87890625 12.69140625 C-1.9260376 11.81685791 -1.97316895 10.94230957 -2.02172852 10.04125977 C-2 8 -2 8 -1 7 C-0.63239269 4.67182036 -0.29758419 2.3381615 0 0 Z " fill="#D8EDF4" transform="translate(786,148)"/>
<path d="M0 0 C-2.63743301 2.63743301 -4.81908961 2.86055002 -8.4375 3.6875 C-10.16806641 4.09548828 -10.16806641 4.09548828 -11.93359375 4.51171875 C-15 5 -15 5 -18 4 C-13.10376461 -0.89623539 -6.45466298 -1.5106658 0 0 Z " fill="#C0D7DB" transform="translate(868,351)"/>
<path d="M0 0 C1.55078125 1.609375 1.55078125 1.609375 3 4 C2.85546875 7.015625 2.85546875 7.015625 2.1875 10.25 C1.97480469 11.32765625 1.76210938 12.4053125 1.54296875 13.515625 C1.36378906 14.33546875 1.18460938 15.1553125 1 16 C0.01 15.67 -0.98 15.34 -2 15 C-1.85879286 13.06215735 -1.71187127 11.12473045 -1.5625 9.1875 C-1.48128906 8.10855469 -1.40007813 7.02960938 -1.31640625 5.91796875 C-1 3 -1 3 0 0 Z " fill="#B8D4D9" transform="translate(832,231)"/>
<path d="M0 0 C13.6332574 -0.18451025 13.6332574 -0.18451025 20 1 C20 1.33 20 1.66 20 2 C14.02197063 4.20927172 9.26039609 3.93213141 3 3 C3 2.34 3 1.68 3 1 C2.01 0.67 1.02 0.34 0 0 Z " fill="#C9E4EA" transform="translate(611,450)"/>
<path d="M0 0 C0.33 0 0.66 0 1 0 C1.2165625 1.423125 1.2165625 1.423125 1.4375 2.875 C1.82935399 5.8934494 1.82935399 5.8934494 3 8 C5.54941373 8.31241371 8.00361513 8.51303421 10.5625 8.625 C11.62887695 8.68300781 11.62887695 8.68300781 12.71679688 8.7421875 C14.47742425 8.83671783 16.23867728 8.91945817 18 9 C18 9.33 18 9.66 18 10 C12.06 10.33 6.12 10.66 0 11 C0 7.37 0 3.74 0 0 Z " fill="#A2BDBD" transform="translate(768,428)"/>
<path d="M0 0 C7.92 0.66 15.84 1.32 24 2 C24 2.33 24 2.66 24 3 C21.45826023 3.02716824 18.91681585 3.04691969 16.375 3.0625 C15.30572266 3.07506836 15.30572266 3.07506836 14.21484375 3.08789062 C10.02655562 3.10710296 6.1271538 2.8267327 2 2 C2 3.65 2 5.3 2 7 C1.34 6.67 0.68 6.34 0 6 C0 4.02 0 2.04 0 0 Z " fill="#D4E8EC" transform="translate(596,379)"/>
<path d="M0 0 C0 0.66 0 1.32 0 2 C5.94 1.505 5.94 1.505 12 1 C12 1.66 12 2.32 12 3 C13.65 2.67 15.3 2.34 17 2 C17.33 2.66 17.66 3.32 18 4 C-3.00917431 3.04892966 -3.00917431 3.04892966 -12 2 C-12 1.67 -12 1.34 -12 1 C-7.95858806 0.36605303 -4.0934693 -0.12404452 0 0 Z " fill="#96B2B2" transform="translate(614,361)"/>
<path d="M0 0 C3.96 0 7.92 0 12 0 C12.36923077 7.38461538 12.36923077 7.38461538 10.5 10.5 C10.005 10.995 9.51 11.49 9 12 C9 9.03 9 6.06 9 3 C7.88625 3.061875 6.7725 3.12375 5.625 3.1875 C4.42875 3.125625 3.2325 3.06375 2 3 C1.34 2.01 0.68 1.02 0 0 Z " fill="#B0D2D8" transform="translate(748,382)"/>
<path d="M0 0 C0 0.66 0 1.32 0 2 C-1.56054688 3.32861328 -1.56054688 3.32861328 -3.71875 4.8203125 C-4.48574219 5.35527344 -5.25273437 5.89023437 -6.04296875 6.44140625 C-6.85378906 6.99699219 -7.66460937 7.55257813 -8.5 8.125 C-9.31082031 8.68832031 -10.12164062 9.25164062 -10.95703125 9.83203125 C-12.96729017 11.22738744 -14.98167493 12.61634849 -17 14 C-17.66 13.67 -18.32 13.34 -19 13 C-18.36191406 12.52949219 -17.72382813 12.05898438 -17.06640625 11.57421875 C-15.82697266 10.64029297 -15.82697266 10.64029297 -14.5625 9.6875 C-13.32693359 8.76517578 -13.32693359 8.76517578 -12.06640625 7.82421875 C-9.75016363 6.08702303 -9.75016363 6.08702303 -9 3 C-8.01 3 -7.02 3 -6 3 C-1.875 0 -1.875 0 0 0 Z " fill="#99CE5F" transform="translate(337,316)"/>
<path d="M0 0 C1.485 0.99 1.485 0.99 3 2 C3.34057617 4.06298828 3.34057617 4.06298828 3.29296875 6.5703125 C3.28330078 7.46621094 3.27363281 8.36210938 3.26367188 9.28515625 C3.23853516 10.22230469 3.21339844 11.15945312 3.1875 12.125 C3.17396484 13.06988281 3.16042969 14.01476562 3.14648438 14.98828125 C3.11106306 17.32608779 3.06167271 19.66276237 3 22 C1.07136286 20.15741754 0.07990406 18.65121023 -0.24755859 15.98242188 C-0.29505495 13.56572541 -0.26111304 11.16601788 -0.1875 8.75 C-0.17396484 7.90953125 -0.16042969 7.0690625 -0.14648438 6.203125 C-0.11123464 4.13514062 -0.0574302 2.06748729 0 0 Z " fill="#AFD3DB" transform="translate(546,99)"/>
<path d="M0 0 C-2.39387157 0.67449966 -4.78969221 1.33976641 -7.1875 2 C-7.86103516 2.19078125 -8.53457031 2.3815625 -9.22851562 2.578125 C-12.90555156 3.5825836 -16.1850182 4.23704741 -20 4 C-17.37870397 0.06805596 -15.67030418 0.14664423 -11.125 -0.8125 C-9.89007812 -1.08707031 -8.65515625 -1.36164063 -7.3828125 -1.64453125 C-3.99524432 -2.00049973 -2.74582767 -1.89724274 0 0 Z " fill="#B7CED1" transform="translate(847,428)"/>
<path d="M0 0 C-0.66 4.29 -1.32 8.58 -2 13 C-2.33 13 -2.66 13 -3 13 C-3.07329796 8.60212211 -3.07396066 5.29584263 -2 1 C-6.95 1 -11.9 1 -17 1 C-17 0.67 -17 0.34 -17 0 C-14.9174133 -0.19561869 -12.83388144 -0.38119313 -10.75 -0.5625 C-9.58984375 -0.66691406 -8.4296875 -0.77132813 -7.234375 -0.87890625 C-4 -1 -4 -1 0 0 Z " fill="#2F4840" transform="translate(818,413)"/>
<path d="M0 0 C0.66 0.33 1.32 0.66 2 1 C1.16855469 1.68835938 1.16855469 1.68835938 0.3203125 2.390625 C-0.40414063 3.00421875 -1.12859375 3.6178125 -1.875 4.25 C-2.59429687 4.85328125 -3.31359375 5.4565625 -4.0546875 6.078125 C-6.08355486 7.87274712 -6.08355486 7.87274712 -7.0625 10.15625 C-8 12 -8 12 -11.125 13.25 C-12.07375 13.4975 -13.0225 13.745 -14 14 C-12.44198995 9.77956771 -9.28120091 7.46863832 -5.875 4.75 C-5.31167969 4.29109375 -4.74835938 3.8321875 -4.16796875 3.359375 C-2.78377401 2.23325047 -1.39256589 1.11575615 0 0 Z " fill="#102E1A" transform="translate(351,305)"/>
<path d="M0 0 C2.86802695 2.24064605 3.91498874 3.40492119 4.4375 7.0625 C3.86816618 12.18650435 2.82327611 17.1658092 1 22 C0.34 22.33 -0.32 22.66 -1 23 C-0.855625 22.39414062 -0.71125 21.78828125 -0.5625 21.1640625 C0.98172279 14.19361239 2.30499067 6.91497201 0 0 Z " fill="#082314" transform="translate(815,288)"/>
<path d="M0 0 C0.33 0 0.66 0 1 0 C1.8125 3.25 1.8125 3.25 2 7 C-0.3125 9.4375 -0.3125 9.4375 -3 11 C-3.66 11 -4.32 11 -5 11 C-5 11.66 -5 12.32 -5 13 C-5.99 13 -6.98 13 -8 13 C-6.75023244 9.34683329 -6.32901247 8.21934164 -3 6 C-2.01 6 -1.02 6 0 6 C0 4.02 0 2.04 0 0 Z " fill="#1F4232" transform="translate(735,277)"/>
<path d="M0 0 C0.66 0 1.32 0 2 0 C2 0.66 2 1.32 2 2 C3.32 2.33 4.64 2.66 6 3 C5.2575 4.11375 5.2575 4.11375 4.5 5.25 C1.996509 10.11594026 2.76782876 15.68585836 3 21 C2.34 21.33 1.68 21.66 1 22 C0.67 14.74 0.34 7.48 0 0 Z " fill="#B2CFD4" transform="translate(660,229)"/>
<path d="M0 0 C11.385 1.485 11.385 1.485 23 3 C23 3.33 23 3.66 23 4 C19.91698584 4.11644156 16.83453877 4.18732432 13.75 4.25 C12.44095703 4.30027344 12.44095703 4.30027344 11.10546875 4.3515625 C9.83896484 4.37089844 9.83896484 4.37089844 8.546875 4.390625 C7.77182617 4.41157227 6.99677734 4.43251953 6.19824219 4.45410156 C4 4 4 4 0 0 Z " fill="#193727" transform="translate(164,461)"/>
<path d="M0 0 C7.26 0 14.52 0 22 0 C21.67 2.64 21.34 5.28 21 8 C20.67 8 20.34 8 20 8 C20 6.02 20 4.04 20 2 C13.4 1.67 6.8 1.34 0 1 C0 0.67 0 0.34 0 0 Z " fill="#D9EEF2" transform="translate(794,414)"/>
<path d="M0 0 C0.99 0 1.98 0 3 0 C3.66 0.66 4.32 1.32 5 2 C5.66 1.67 6.32 1.34 7 1 C6.34 3.31 5.68 5.62 5 8 C3.02 7.34 1.04 6.68 -1 6 C-0.67 4.02 -0.34 2.04 0 0 Z " fill="#B6D7E1" transform="translate(737,347)"/>
<path d="M0 0 C0.33 0 0.66 0 1 0 C1.61111111 13.98765432 1.61111111 13.98765432 -3.6875 19.875 C-4.3371875 20.431875 -4.3371875 20.431875 -5 21 C-5.33 19.68 -5.66 18.36 -6 17 C-5.34 17 -4.68 17 -4 17 C-3.67 16.01 -3.34 15.02 -3 14 C-2.34 14 -1.68 14 -1 14 C-0.67 9.38 -0.34 4.76 0 0 Z " fill="#153327" transform="translate(601,176)"/>
<path d="M0 0 C0 0.33 0 0.66 0 1 C-8.91 0.67 -17.82 0.34 -27 0 C-27 -0.33 -27 -0.66 -27 -1 C-7.97018828 -2.60251046 -7.97018828 -2.60251046 0 0 Z " fill="#A0BABA" transform="translate(827,333)"/>
<path d="M0 0 C1.484375 1.140625 1.484375 1.140625 3 3 C3.328125 5.671875 3.328125 5.671875 3.25 8.75 C3.22421875 9.8121875 3.1984375 10.874375 3.171875 11.96875 C2.97856582 15.37802097 2.61048979 18.64230614 2 22 C1.67 22 1.34 22 1 22 C0.16788724 16.96145894 -0.1078534 12.1874338 -0.0625 7.0625 C-0.05798828 6.37865234 -0.05347656 5.69480469 -0.04882812 4.99023438 C-0.0371956 3.32678396 -0.01926694 1.6633795 0 0 Z " fill="#11402B" transform="translate(625,163)"/>
<path d="M0 0 C-5.69020694 3.2828117 -11.62378015 3.10993482 -18 3 C-18.33 2.34 -18.66 1.68 -19 1 C-18.11248047 0.90912109 -18.11248047 0.90912109 -17.20703125 0.81640625 C-12.19754136 0.29272494 -12.19754136 0.29272494 -7.25 -0.625 C-4.59284677 -1.06785887 -2.5911226 -0.66628867 0 0 Z " fill="#BCD2D4" transform="translate(813,433)"/>
<path d="M0 0 C-3.28463659 2.18975773 -6.20696275 2.99806563 -10 4 C-10 4.66 -10 5.32 -10 6 C-12.875 6.625 -12.875 6.625 -16 7 C-16.66 6.34 -17.32 5.68 -18 5 C-15.94175571 4.15621025 -13.87820214 3.32536378 -11.8125 2.5 C-10.66394531 2.0359375 -9.51539063 1.571875 -8.33203125 1.09375 C-5.28009923 0.09194348 -3.16884928 -0.23870804 0 0 Z " fill="#BED7DD" transform="translate(292,409)"/>
<path d="M0 0 C0.33 0 0.66 0 1 0 C1 3.63 1 7.26 1 11 C-4.61 10.67 -10.22 10.34 -16 10 C-16 9.67 -16 9.34 -16 9 C-11.05 9 -6.1 9 -1 9 C-0.67 6.03 -0.34 3.06 0 0 Z " fill="#D4E9EE" transform="translate(758,388)"/>
<path d="M0 0 C2.64109166 0.37729881 3.78092869 0.76625405 5.6328125 2.7421875 C6.37144531 3.79792969 6.37144531 3.79792969 7.125 4.875 C7.87136719 5.92300781 7.87136719 5.92300781 8.6328125 6.9921875 C9.76497533 8.65484948 10.88420604 10.32630906 12 12 C9 12 9 12 7.17578125 10.3203125 C6.56089844 9.59585937 5.94601562 8.87140625 5.3125 8.125 C4.68988281 7.40570313 4.06726563 6.68640625 3.42578125 5.9453125 C2 4 2 4 2 2 C1.34 2 0.68 2 0 2 C0 1.34 0 0.68 0 0 Z " fill="#B5CCCE" transform="translate(629,343)"/>
<path d="M0 0 C0.33 0 0.66 0 1 0 C1.33 6.27 1.66 12.54 2 19 C2.33 19 2.66 19 3 19 C3 20.98 3 22.96 3 25 C2.01 25 1.02 25 0 25 C0 16.75 0 8.5 0 0 Z " fill="#98BCC0" transform="translate(504,132)"/>
<path d="M0 0 C0 0.33 0 0.66 0 1 C-1.04800781 1.20496094 -2.09601562 1.40992188 -3.17578125 1.62109375 C-4.55470769 1.89312686 -5.93361283 2.16526791 -7.3125 2.4375 C-8.34793945 2.63956055 -8.34793945 2.63956055 -9.40429688 2.84570312 C-12.34289007 3.42774332 -15.15456685 4.05152228 -18 5 C-18 4.34 -18 3.68 -18 3 C-11.08504821 -0.61463389 -7.61410213 -1.14211532 0 0 Z " fill="#BCD3D6" transform="translate(557,337)"/>
<path d="M0 0 C0.33 0 0.66 0 1 0 C1 3.63 1 7.26 1 11 C2.98 11 4.96 11 7 11 C7 11.99 7 12.98 7 14 C4.36 13.67 1.72 13.34 -1 13 C-0.67 8.71 -0.34 4.42 0 0 Z " fill="#AFC7C6" transform="translate(823,172)"/>
<path d="M0 0 C2.2922454 0.30822621 4.58378455 0.62170874 6.875 0.9375 C8.15117188 1.11152344 9.42734375 1.28554688 10.7421875 1.46484375 C14 2 14 2 16 3 C16 3.66 16 4.32 16 5 C10.49191603 4.40984815 5.35121931 3.43336231 0 2 C0 1.34 0 0.68 0 0 Z " fill="#A9C1C2" transform="translate(549,352)"/>
<path d="M0 0 C-2.06081361 0.50690584 -4.12373526 1.00524619 -6.1875 1.5 C-7.91033203 1.91765625 -7.91033203 1.91765625 -9.66796875 2.34375 C-12.56818829 2.91495385 -15.06096385 3.13283779 -18 3 C-16.68 2.67 -15.36 2.34 -14 2 C-14 1.34 -14 0.68 -14 0 C-12.42074025 -0.39180108 -10.83631206 -0.76280736 -9.25 -1.125 C-8.36828125 -1.33382813 -7.4865625 -1.54265625 -6.578125 -1.7578125 C-3.67124507 -2.03088304 -2.43338652 -1.53508028 0 0 Z " fill="#264336" transform="translate(264,473)"/>
<path d="M0 0 C1.74965358 -0.05429959 3.49979787 -0.09292823 5.25 -0.125 C6.22453125 -0.14820313 7.1990625 -0.17140625 8.203125 -0.1953125 C11.0196498 0.00137219 12.60949036 0.55431084 15 2 C11.98509443 3.00496852 9.95818308 3.10335303 6.8125 3.0625 C5.91144531 3.05347656 5.01039063 3.04445313 4.08203125 3.03515625 C3.39496094 3.02355469 2.70789063 3.01195312 2 3 C1.67 4.32 1.34 5.64 1 7 C1.020625 6.21625 1.04125 5.4325 1.0625 4.625 C1.18684063 2.01885039 1.18684063 2.01885039 0 0 Z " fill="#B0D4DC" transform="translate(774,381)"/>
<path d="M0 0 C2 2 2 2 2.25 5.1875 C1.99404015 9.09088777 1.32353535 12.32351292 0 16 C-0.66 16.33 -1.32 16.66 -2 17 C-1.855625 16.05125 -1.71125 15.1025 -1.5625 14.125 C-0.88802722 9.43259653 -0.44623104 4.71865588 0 0 Z " fill="#0A2D1B" transform="translate(827,243)"/>
<path d="M0 0 C0.33 0 0.66 0 1 0 C1.22119939 2.62450086 1.42746669 5.24870486 1.625 7.875 C1.68945312 8.62136719 1.75390625 9.36773437 1.8203125 10.13671875 C1.96087365 12.0870047 1.98759849 14.04469467 2 16 C1.34 16.66 0.68 17.32 0 18 C-0.69748583 19.31747324 -1.36959957 20.64914193 -2 22 C-1.40711812 14.65835626 -0.761788 7.32613141 0 0 Z " fill="#0F4027" transform="translate(501,149)"/>
<path d="M0 0 C-4.95 2.31 -9.9 4.62 -15 7 C-15 6.34 -15 5.68 -15 5 C-15.66 4.67 -16.32 4.34 -17 4 C-14.73291675 3.1344953 -12.46224921 2.28240685 -10.1875 1.4375 C-9.54490234 1.19064453 -8.90230469 0.94378906 -8.24023438 0.68945312 C-3.33984375 -1.11328125 -3.33984375 -1.11328125 0 0 Z " fill="#284622" transform="translate(322,111)"/>
<path d="M0 0 C0 4.62 0 9.24 0 14 C-0.99 14 -1.98 14 -3 14 C-3 9.71 -3 5.42 -3 1 C-1 0 -1 0 0 0 Z " fill="#B6D9E0" transform="translate(548,83)"/>
<path d="M0 0 C0.33 0.66 0.66 1.32 1 2 C-0.24493748 4.28974316 -1.52641528 6.44190034 -2.9375 8.625 C-3.32357422 9.23601562 -3.70964844 9.84703125 -4.10742188 10.4765625 C-5.06446326 11.9889242 -6.03132811 13.49506117 -7 15 C-7.33 14.34 -7.66 13.68 -8 13 C-8.66 12.67 -9.32 12.34 -10 12 C-9.44570313 11.38511719 -8.89140625 10.77023437 -8.3203125 10.13671875 C-7.59585937 9.32847656 -6.87140625 8.52023437 -6.125 7.6875 C-5.40570313 6.88699219 -4.68640625 6.08648437 -3.9453125 5.26171875 C-1.88394498 2.95810917 -1.88394498 2.95810917 0 0 Z " fill="#334B46" transform="translate(470,311)"/>
<path d="M0 0 C4.29 0 8.58 0 13 0 C13.33 0.99 13.66 1.98 14 3 C9.1666528 3.08333357 4.76307437 2.95261487 0 2 C0 1.34 0 0.68 0 0 Z " fill="#A8C3C5" transform="translate(607,434)"/>
<path d="M0 0 C0.99 0.33 1.98 0.66 3 1 C3.08086147 2.79093191 3.13912702 4.58289628 3.1875 6.375 C3.22230469 7.37273437 3.25710938 8.37046875 3.29296875 9.3984375 C3.19628906 10.25695312 3.09960938 11.11546875 3 12 C2.01 12.66 1.02 13.32 0 14 C0 9.38 0 4.76 0 0 Z " fill="#B7DCE9" transform="translate(723,333)"/>
<path d="M0 0 C3.21524305 1.40844718 5.32183868 3.10344786 7.75 5.625 C8.67039062 6.57246094 8.67039062 6.57246094 9.609375 7.5390625 C10.29773438 8.26222656 10.29773438 8.26222656 11 9 C10.34 9.66 9.68 10.32 9 11 C7.49403892 9.54782324 5.99537896 8.08807139 4.5 6.625 C3.6646875 5.81289062 2.829375 5.00078125 1.96875 4.1640625 C0 2 0 2 0 0 Z " fill="#BACED1" transform="translate(476,71)"/>
<path d="M0 0 C0.33 0 0.66 0 1 0 C1.02697137 2.60423592 1.04682489 5.20819244 1.0625 7.8125 C1.07087891 8.55048828 1.07925781 9.28847656 1.08789062 10.04882812 C1.10259828 13.29922068 1.03531702 15.89404895 0 19 C-1.65 19 -3.3 19 -5 19 C-4.01 18.67 -3.02 18.34 -2 18 C-1.34 12.06 -0.68 6.12 0 0 Z " fill="#43605B" transform="translate(819,384)"/>
<path d="M0 0 C0.66 0 1.32 0 2 0 C2 0.66 2 1.32 2 2 C7.28 2.33 12.56 2.66 18 3 C18 3.33 18 3.66 18 4 C12.06 4 6.12 4 0 4 C0 2.68 0 1.36 0 0 Z " fill="#B6CACD" transform="translate(598,398)"/>
<path d="M0 0 C1.9375 1.0625 1.9375 1.0625 4 3 C5.15113628 7.52232112 5.28064874 9.97792567 3 14 C2.49307308 12.4188708 1.99473557 10.83498617 1.5 9.25 C1.2215625 8.36828125 0.943125 7.4865625 0.65625 6.578125 C0 4 0 4 0 0 Z " fill="#133F2A" transform="translate(601,299)"/>
<path d="M0 0 C2 2 2 2 2.125 5.625 C2.08375 6.73875 2.0425 7.8525 2 9 C1.01 9.495 1.01 9.495 0 10 C-0.72159424 11.64363134 -1.39351421 13.31050386 -2 15 C-3.14871801 11.55384597 -2.80416945 9.90109891 -2.125 6.375 C-1.94195313 5.39273438 -1.75890625 4.41046875 -1.5703125 3.3984375 C-1 1 -1 1 0 0 Z " fill="#14422C" transform="translate(756,242)"/>
<path d="M0 0 C-0.33 0.99 -0.66 1.98 -1 3 C-2.77049689 3.05410687 -4.54146849 3.09284119 -6.3125 3.125 C-7.79169922 3.15980469 -7.79169922 3.15980469 -9.30078125 3.1953125 C-12 3 -12 3 -15 1 C-10.03926578 -0.32286246 -5.08888488 -0.08893197 0 0 Z " fill="#B3D7E0" transform="translate(656,452)"/>
<path d="M0 0 C0.99 0.33 1.98 0.66 3 1 C2.67 6.28 2.34 11.56 2 17 C1.67 17 1.34 17 1 17 C0.00749455 11.29309366 -0.10477512 5.78591511 0 0 Z " fill="#1F4636" transform="translate(783,201)"/>
<path d="M0 0 C2.32472205 2.85306797 3.7508258 5.54074837 5 9 C1.63408134 7.55746343 -0.51047079 5.66735273 -3 3 C-2.01 2.67 -1.02 2.34 0 2 C0 1.34 0 0.68 0 0 Z " fill="#B8CECD" transform="translate(672,352)"/>
<path d="M0 0 C0.99 0 1.98 0 3 0 C2.67 1.65 2.34 3.3 2 5 C2.66 5.33 3.32 5.66 4 6 C2.02 6.66 0.04 7.32 -2 8 C-2.33 7.01 -2.66 6.02 -3 5 C-2.01 4.67 -1.02 4.34 0 4 C0 2.68 0 1.36 0 0 Z " fill="#154024" transform="translate(267,325)"/>
<path d="M0 0 C3.3 0 6.6 0 10 0 C10 2.31 10 4.62 10 7 C9.67 7 9.34 7 9 7 C9 5.02 9 3.04 9 1 C4.05 2.485 4.05 2.485 -1 4 C-0.67 2.68 -0.34 1.36 0 0 Z " fill="#213F33" transform="translate(590,230)"/>
<path d="M0 0 C3.63 0 7.26 0 11 0 C10.67 1.98 10.34 3.96 10 6 C9.67 4.68 9.34 3.36 9 2 C4.34947128 1.73067479 4.34947128 1.73067479 0 3 C0 2.01 0 1.02 0 0 Z " fill="#233F32" transform="translate(814,230)"/>
<path d="M0 0 C2 1 2 1 4 4 C4 4.99 4 5.98 4 7 C3.01 7.495 3.01 7.495 2 8 C1.34227572 11.02934491 1.34227572 11.02934491 1 14 C0.67 14 0.34 14 0 14 C0 9.38 0 4.76 0 0 Z " fill="#CAE1E5" transform="translate(735,295)"/>
<path d="M0 0 C3.12270126 2.51830747 3.94523098 3.7261549 4.75 7.75 C4.87375 9.35875 4.87375 9.35875 5 11 C3.875 9.3125 2.75 7.625 1.625 5.9375 C-0.1088572 3.87020873 -1.53058201 3.02182813 -4 2 C-2.68 1.34 -1.36 0.68 0 0 Z " fill="#B8D1D4" transform="translate(615,282)"/>
<path d="M0 0 C-0.33 0.99 -0.66 1.98 -1 3 C-2.65 3 -4.3 3 -6 3 C-6 4.65 -6 6.3 -6 8 C-8 6 -8 6 -8.125 3.375 C-8.08375 2.59125 -8.0425 1.8075 -8 1 C-2.25 0 -2.25 0 0 0 Z " fill="#C4DCDD" transform="translate(599,231)"/>
<path d="M0 0 C0.33 0 0.66 0 1 0 C1.33 3.63 1.66 7.26 2 11 C1.01 11.66 0.02 12.32 -1 13 C-1.02686553 11.02090602 -1.04633375 9.04171029 -1.0625 7.0625 C-1.07410156 5.96035156 -1.08570313 4.85820312 -1.09765625 3.72265625 C-1 1 -1 1 0 0 Z " fill="#113F2A" transform="translate(798,137)"/>
<path d="M0 0 C0.66 0.33 1.32 0.66 2 1 C1.67 2.32 1.34 3.64 1 5 C0.278125 5.103125 -0.44375 5.20625 -1.1875 5.3125 C-4.24491993 6.05986932 -6.38329635 7.28045189 -9 9 C-7.48328036 4.44984107 -3.83108947 2.49942736 0 0 Z " fill="#9FDA64" transform="translate(238,131)"/>
<path d="M0 0 C3.96 0.33 7.92 0.66 12 1 C12 1.33 12 1.66 12 2 C5.93303301 2.77040851 0.11485027 3.09706112 -6 3 C-6 2.67 -6 2.34 -6 2 C-4.02 2 -2.04 2 0 2 C0 1.34 0 0.68 0 0 Z " fill="#3F5951" transform="translate(602,343)"/>
<path d="M0 0 C1.11375 0.639375 2.2275 1.27875 3.375 1.9375 C5.23497087 3.00526106 7.08142937 4.04071468 9 5 C8.67 6.32 8.34 7.64 8 9 C8 8.34 8 7.68 8 7 C7.236875 6.9175 6.47375 6.835 5.6875 6.75 C2.45284809 5.84730645 1.64900735 4.86406539 0 2 C0 1.34 0 0.68 0 0 Z " fill="#D1EAF0" transform="translate(586,260)"/>
<path d="M0 0 C0.33 0 0.66 0 1 0 C1.33 3.63 1.66 7.26 2 11 C1.01 11.33 0.02 11.66 -1 12 C-0.67 8.04 -0.34 4.08 0 0 Z " fill="#AFCCCF" transform="translate(787,255)"/>
<path d="M0 0 C0.66 0.33 1.32 0.66 2 1 C-1.3 4.63 -4.6 8.26 -8 12 C-8 8.03869629 -6.65122875 7.17085599 -4 4.3125 C-3.2575 3.50425781 -2.515 2.69601563 -1.75 1.86328125 C-1.1725 1.24839844 -0.595 0.63351563 0 0 Z " fill="#9DD560" transform="translate(170,194)"/>
<path d="M0 0 C0.33 0 0.66 0 1 0 C1 2.31 1 4.62 1 7 C-3.00200378 8.60080151 -6.04556236 7.29279692 -10 6 C-10 5.67 -10 5.34 -10 5 C-3.25 4.875 -3.25 4.875 -1 6 C-0.67 4.02 -0.34 2.04 0 0 Z " fill="#0B2616" transform="translate(831,180)"/>
<path d="M0 0 C0.66 0 1.32 0 2 0 C3.28317892 3.84953676 3.06643637 6.94738135 3 11 C2.01 11 1.02 11 0 11 C0 7.37 0 3.74 0 0 Z " fill="#15442E" transform="translate(794,179)"/>
<path d="M0 0 C4.2742558 1.5830577 6.26531794 4.50568404 9 8 C6 8 6 8 4.39453125 6.7578125 C3.87246094 6.21898438 3.35039062 5.68015625 2.8125 5.125 C2.28269531 4.59132813 1.75289063 4.05765625 1.20703125 3.5078125 C0 2 0 2 0 0 Z " fill="#203A21" transform="translate(447,82)"/>
<path d="M0 0 C0.99 0.99 1.98 1.98 3 3 C-2.28 2.67 -7.56 2.34 -13 2 C-13 1.67 -13 1.34 -13 1 C-4.30434783 -0.39130435 -4.30434783 -0.39130435 0 0 Z " fill="#99B3B6" transform="translate(809,47)"/>
<path d="M0 0 C3.63 0.33 7.26 0.66 11 1 C11 1.33 11 1.66 11 2 C5.27959989 2.8320582 -0.22240116 3.12036664 -6 3 C-6 2.67 -6 2.34 -6 2 C-4.02 1.67 -2.04 1.34 0 1 C0 0.67 0 0.34 0 0 Z " fill="#3F5951" transform="translate(792,378)"/>
<path d="M0 0 C1.98 0 3.96 0 6 0 C6 0.33 6 0.66 6 1 C8.97 1.495 8.97 1.495 12 2 C12 2.33 12 2.66 12 3 C7.71 3 3.42 3 -1 3 C-0.67 2.01 -0.34 1.02 0 0 Z " fill="#D1E8EC" transform="translate(801,329)"/>
<path d="M0 0 C1.485 0.99 1.485 0.99 3 2 C3.36328125 3.875 3.36328125 3.875 3.3125 6 C3.30863281 6.70125 3.30476562 7.4025 3.30078125 8.125 C3 10 3 10 1 12 C0 11 0 11 -0.09765625 8.49609375 C-0.08605469 7.48675781 -0.07445312 6.47742188 -0.0625 5.4375 C-0.05347656 4.42558594 -0.04445313 3.41367187 -0.03515625 2.37109375 C-0.02355469 1.58863281 -0.01195312 0.80617188 0 0 Z " fill="#A7CFD6" transform="translate(653,289)"/>
<path d="M0 0 C0.99 0 1.98 0 3 0 C3.1875 3.3125 3.1875 3.3125 3 7 C2.01 7.99 1.02 8.98 0 10 C0 6.7 0 3.4 0 0 Z " fill="#B3D6DE" transform="translate(616,206)"/>
<path d="M0 0 C0.66 0 1.32 0 2 0 C3.60725635 3.21451269 3.05748185 6.43612536 3 10 C2.01 10.33 1.02 10.66 0 11 C0 7.37 0 3.74 0 0 Z " fill="#B3D5DF" transform="translate(810,177)"/>
<path d="M0 0 C3 4 3 4 2.63671875 6.578125 C2.16685547 7.90070313 2.16685547 7.90070313 1.6875 9.25 C1.38199219 10.14203125 1.07648437 11.0340625 0.76171875 11.953125 C0.51035156 12.62859375 0.25898437 13.3040625 0 14 C-0.33 14 -0.66 14 -1 14 C-0.67 9.38 -0.34 4.76 0 0 Z " fill="#092C1A" transform="translate(815,167)"/>
<path d="M0 0 C0 0.99 0 1.98 0 3 C-3.3 3 -6.6 3 -10 3 C-10 2.34 -10 1.68 -10 1 C-6.78548731 -0.60725635 -3.56387464 -0.05748185 0 0 Z " fill="#13402B" transform="translate(640,438)"/>
<path d="M0 0 C0.33 0 0.66 0 1 0 C1.66 4.29 2.32 8.58 3 13 C2.01 13 1.02 13 0 13 C0 8.71 0 4.42 0 0 Z " fill="#163829" transform="translate(553,393)"/>
<path d="M0 0 C0.33 1.32 0.66 2.64 1 4 C2.32 4.33 3.64 4.66 5 5 C2.36 5.66 -0.28 6.32 -3 7 C-3 5.68 -3 4.36 -3 3 C-2.34 3 -1.68 3 -1 3 C-0.67 2.01 -0.34 1.02 0 0 Z " fill="#BAD4D7" transform="translate(611,312)"/>
<path d="M0 0 C0.33 0.99 0.66 1.98 1 3 C2.65 3.33 4.3 3.66 6 4 C5.67 4.99 5.34 5.98 5 7 C5 6.34 5 5.68 5 5 C4.01 5.66 3.02 6.32 2 7 C1.01 7 0.02 7 -1 7 C-0.67 4.69 -0.34 2.38 0 0 Z " fill="#B6D5DB" transform="translate(801,295)"/>
<path d="M0 0 C0.33 0 0.66 0 1 0 C0.53199289 4.05606165 0.12046792 7.46588679 -2 11 C-2.66 11 -3.32 11 -4 11 C-3.5247412 9.35303396 -3.04468109 7.70745272 -2.5625 6.0625 C-2.29566406 5.14597656 -2.02882812 4.22945313 -1.75390625 3.28515625 C-1 1 -1 1 0 0 Z " fill="#264723" transform="translate(148,265)"/>
<path d="M0 0 C3.65316671 1.24976756 4.78065836 1.67098753 7 5 C7.125 7.6875 7.125 7.6875 7 10 C6.34 9.01 5.68 8.02 5 7 C3.08608014 4.25394106 1.85129581 2.90086388 -1 1 C-0.67 0.67 -0.34 0.34 0 0 Z " fill="#BCD3D6" transform="translate(601,217)"/>
<path d="M0 0 C0.33 0.66 0.66 1.32 1 2 C-0.98 4.97 -2.96 7.94 -5 11 C-5.99 10.67 -6.98 10.34 -8 10 C-5.36 6.7 -2.72 3.4 0 0 Z " fill="#2B4824" transform="translate(403,206)"/>
<path d="M0 0 C5.41538462 -0.36923077 5.41538462 -0.36923077 8.375 1.5 C8.91125 1.995 9.4475 2.49 10 3 C2.25 3.125 2.25 3.125 0 2 C0 1.34 0 0.68 0 0 Z " fill="#39564B" transform="translate(596,377)"/>
<path d="M0 0 C0.8353125 0.7425 0.8353125 0.7425 1.6875 1.5 C-7.72252278 1.68451025 -7.72252278 1.68451025 -12.3125 0.5 C-12.3125 0.17 -12.3125 -0.16 -12.3125 -0.5 C-3.77816901 -2.45070423 -3.77816901 -2.45070423 0 0 Z " fill="#3C5650" transform="translate(861.3125,348.5)"/>
<path d="M0 0 C0.66 0 1.32 0 2 0 C1.67 1.32 1.34 2.64 1 4 C0.030625 4.12375 -0.93875 4.2475 -1.9375 4.375 C-3.4534375 4.684375 -3.4534375 4.684375 -5 5 C-5.33 5.66 -5.66 6.32 -6 7 C-5.67 5.68 -5.34 4.36 -5 3 C-3.68 3 -2.36 3 -1 3 C-0.67 2.01 -0.34 1.02 0 0 Z " fill="#1A3929" transform="translate(806,324)"/>
<path d="M0 0 C0.99 0 1.98 0 3 0 C3.33 2.31 3.66 4.62 4 7 C2.68 6.67 1.36 6.34 0 6 C0 4.02 0 2.04 0 0 Z " fill="#153E2B" transform="translate(606,276)"/>
<path d="M0 0 C0.33 0.99 0.66 1.98 1 3 C1.66 3 2.32 3 3 3 C3.33 3.99 3.66 4.98 4 6 C1 7 1 7 -2 7 C-1.34 4.69 -0.68 2.38 0 0 Z " fill="#194122" transform="translate(152,253)"/>
<path d="M0 0 C0.66 0.33 1.32 0.66 2 1 C-0.475 5.455 -0.475 5.455 -3 10 C-3.33 10 -3.66 10 -4 10 C-4.25 7.25 -4.25 7.25 -4 4 C-2 1.625 -2 1.625 0 0 Z " fill="#173528" transform="translate(470,246)"/>
<path d="M0 0 C0.66 0.33 1.32 0.66 2 1 C1.01 3.31 0.02 5.62 -1 8 C-1.99 8 -2.98 8 -4 8 C-2.87548273 5.0280615 -1.77706209 2.66559313 0 0 Z " fill="#193728" transform="translate(114,235)"/>
<path d="M0 0 C2.5 2.25 2.5 2.25 5 5 C5 6.32 5 7.64 5 9 C4.34 9 3.68 9 3 9 C3 7.68 3 6.36 3 5 C2.34 5 1.68 5 1 5 C1 4.34 1 3.68 1 3 C0.34 2.67 -0.32 2.34 -1 2 C-0.67 1.34 -0.34 0.68 0 0 Z " fill="#153627" transform="translate(595,152)"/>
<path d="M0 0 C0.99 0.33 1.98 0.66 3 1 C3 3.31 3 5.62 3 8 C2.01 8 1.02 8 0 8 C0 5.36 0 2.72 0 0 Z " fill="#163B2C" transform="translate(589,140)"/>
<path d="M0 0 C1.6396875 0.0928125 1.6396875 0.0928125 3.3125 0.1875 C3.3125 0.8475 3.3125 1.5075 3.3125 2.1875 C0.0125 2.5175 -3.2875 2.8475 -6.6875 3.1875 C-3.6875 0.1875 -3.6875 0.1875 0 0 Z " fill="#B9CFD2" transform="translate(588.6875,50.8125)"/>
<path d="M0 0 C-3.44450737 2.29633824 -5.93812283 2.54016485 -10 3 C-8 0 -8 0 -6.125 -0.75 C-3.80466218 -1.02298092 -2.21024918 -0.71043724 0 0 Z " fill="#C0D4D9" transform="translate(256,455)"/>
<path d="M0 0 C2.97 0.33 5.94 0.66 9 1 C9 1.66 9 2.32 9 3 C6.36 3 3.72 3 1 3 C0.67 2.01 0.34 1.02 0 0 Z " fill="#B2D5DC" transform="translate(783,451)"/>
<path d="M0 0 C3.3125 0.25 3.3125 0.25 7 1 C7.99 2.32 8.98 3.64 10 5 C6.7 4.01 3.4 3.02 0 2 C0 1.34 0 0.68 0 0 Z " fill="#2D493E" transform="translate(143,420)"/>
<path d="M0 0 C-0.1875 1.875 -0.1875 1.875 -1 4 C-3.5625 5.25 -3.5625 5.25 -6 6 C-6 5.01 -6 4.02 -6 3 C-2.66666667 0 -2.66666667 0 0 0 Z " fill="#BDD9E0" transform="translate(376,357)"/>
<path d="M0 0 C0.66 0 1.32 0 2 0 C6 6.625 6 6.625 6 10 C2.51668565 6.98112756 1.20842856 4.43090471 0 0 Z " fill="#C2D6D7" transform="translate(685,349)"/>
<path d="M0 0 C-0.33 1.65 -0.66 3.3 -1 5 C-2.32 5.33 -3.64 5.66 -5 6 C-5 3 -5 3 -3.625 1.3125 C-2 0 -2 0 0 0 Z " fill="#153022" transform="translate(462,324)"/>
<path d="M0 0 C1.5625 1.125 1.5625 1.125 3 3 C2.6875 6.1875 2.6875 6.1875 2 9 C1.34 8.67 0.68 8.34 0 8 C0 5.36 0 2.72 0 0 Z " fill="#C7E1E8" transform="translate(607,263)"/>
<path d="M0 0 C0.66 0.33 1.32 0.66 2 1 C0.80100302 4.0831351 -0.47700477 7.06279492 -2 10 C-2.66 10 -3.32 10 -4 10 C-2.8905928 6.51329166 -1.73662334 3.22515763 0 0 Z " fill="#183326" transform="translate(103,255)"/>
<path d="M0 0 C-0.33 0.99 -0.66 1.98 -1 3 C-2.98 3.33 -4.96 3.66 -7 4 C-6.67 3.01 -6.34 2.02 -6 1 C-4 0 -4 0 0 0 Z " fill="#112D1A" transform="translate(307,116)"/>
<path d="M0 0 C0.66 0.66 1.32 1.32 2 2 C1.34 2 0.68 2 0 2 C0 2.66 0 3.32 0 4 C-2.64 4.33 -5.28 4.66 -8 5 C-5.44008376 2.98863724 -2.95409701 1.37154504 0 0 Z " fill="#BFD8DB" transform="translate(323,392)"/>
<path d="M0 0 C0.66 0 1.32 0 2 0 C1.1875 3.4375 1.1875 3.4375 0 7 C-0.99 7.33 -1.98 7.66 -3 8 C-1.125 2.25 -1.125 2.25 0 0 Z " fill="#BCD6D8" transform="translate(761,345)"/>
<path d="M0 0 C0 3.90838866 -1.50567876 5.11594107 -4 8 C-4.99 7.67 -5.98 7.34 -7 7 C-4.69 4.69 -2.38 2.38 0 0 Z " fill="#B1C8C9" transform="translate(420,315)"/>
<path d="M0 0 C0 0.99 0 1.98 0 3 C-3.22791555 5.1519437 -4.28400809 5.20086443 -8 5 C-7.34 3.68 -6.68 2.36 -6 1 C-5.38125 1.20625 -4.7625 1.4125 -4.125 1.625 C-3.073125 1.810625 -3.073125 1.810625 -2 2 C-1.34 1.34 -0.68 0.68 0 0 Z " fill="#0B311C" transform="translate(372,248)"/>
<path d="M0 0 C2.40072955 2.88087546 4.47291037 5.56404834 6 9 C5.34 9.66 4.68 10.32 4 11 C3.32591692 9.73308493 2.66099503 8.46129251 2 7.1875 C1.62875 6.47980469 1.2575 5.77210937 0.875 5.04296875 C0 3 0 3 0 0 Z " fill="#C0D4D7" transform="translate(492,89)"/>
<path d="M0 0 C2.97 0.495 2.97 0.495 6 1 C6.33 1.99 6.66 2.98 7 4 C5.35 4.33 3.7 4.66 2 5 C1.34 3.35 0.68 1.7 0 0 Z " fill="#B7D6E0" transform="translate(846,422)"/>
<path d="M0 0 C-0.33 3.3 -0.66 6.6 -1 10 C-1.33 10 -1.66 10 -2 10 C-2.103125 8.88625 -2.20625 7.7725 -2.3125 6.625 C-2.539375 5.42875 -2.76625 4.2325 -3 3 C-3.99 2.34 -4.98 1.68 -6 1 C-3.92446352 0.4465236 -2.15634036 0 0 0 Z " fill="#B5D7DE" transform="translate(864,371)"/>
<path d="M0 0 C1.32 0 2.64 0 4 0 C4 0.99 4 1.98 4 3 C4.66 3.33 5.32 3.66 6 4 C4.02 4 2.04 4 0 4 C0 2.68 0 1.36 0 0 Z " fill="#C1DEE4" transform="translate(796,312)"/>
<path d="M0 0 C1.485 0.99 1.485 0.99 3 2 C3.1875 5.125 3.1875 5.125 3 8 C2.01 8.33 1.02 8.66 0 9 C0 6.03 0 3.06 0 0 Z " fill="#B1D6DF" transform="translate(671,297)"/>
<path d="M0 0 C2.97851562 0.53710938 2.97851562 0.53710938 5.95703125 1.07421875 C5.95703125 1.40421875 5.95703125 1.73421875 5.95703125 2.07421875 C2.32703125 2.40421875 -1.30296875 2.73421875 -5.04296875 3.07421875 C-2.04296875 0.07421875 -2.04296875 0.07421875 0 0 Z " fill="#B0C6C8" transform="translate(598.04296875,48.92578125)"/>
<path d="M0 0 C3.46941546 0.45822468 6.67395049 0.89131683 10 2 C9.67 2.66 9.34 3.32 9 4 C6.69 3.67 4.38 3.34 2 3 C2 2.34 2 1.68 2 1 C1.34 0.67 0.68 0.34 0 0 Z " fill="#092716" transform="translate(565,428)"/>
<path d="M0 0 C2.31 0.33 4.62 0.66 7 1 C7 1.66 7 2.32 7 3 C4.36 3 1.72 3 -1 3 C-0.67 2.01 -0.34 1.02 0 0 Z " fill="#113F29" transform="translate(564,336)"/>
<path d="M0 0 C4.75 0.75 4.75 0.75 7 3 C4.03 3 1.06 3 -2 3 C-1.34 2.01 -0.68 1.02 0 0 Z " fill="#113F29" transform="translate(586,334)"/>
<path d="M0 0 C1.98 0.66 3.96 1.32 6 2 C5.67 2.66 5.34 3.32 5 4 C3.02 4 1.04 4 -1 4 C-0.67 2.68 -0.34 1.36 0 0 Z " fill="#C0DCE3" transform="translate(604,327)"/>
<path d="M0 0 C2.5 1.3125 2.5 1.3125 5 3 C5 3.99 5 4.98 5 6 C3.35 5.67 1.7 5.34 0 5 C0 3.35 0 1.7 0 0 Z " fill="#1F4434" transform="translate(667,313)"/>
<path d="M0 0 C1.98 0 3.96 0 6 0 C5.01 0.66 4.02 1.32 3 2 C2.42251197 3.96361864 2.42251197 3.96361864 2.3125 6.125 C2.209375 7.40375 2.10625 8.6825 2 10 C1.67 10 1.34 10 1 10 C0.67 6.7 0.34 3.4 0 0 Z " fill="#ACC3C2" transform="translate(665,295)"/>
<path d="M0 0 C0.99 0 1.98 0 3 0 C2.1875 2.4375 2.1875 2.4375 1 5 C0.01 5.33 -0.98 5.66 -2 6 C-1.34 4.02 -0.68 2.04 0 0 Z " fill="#0B3E22" transform="translate(156,249)"/>
<path d="M0 0 C0 2.97 0 5.94 0 9 C-0.33 8.01 -0.66 7.02 -1 6 C-1.66 6 -2.32 6 -3 6 C-3 4.35 -3 2.7 -3 1 C-1 0 -1 0 0 0 Z " fill="#1A3F30" transform="translate(593,244)"/>
<path d="M0 0 C0.93065133 2.60582371 1.14917407 3.64198224 0.0625 6.25 C-0.4634375 7.11625 -0.4634375 7.11625 -1 8 C-2.65 8 -4.3 8 -6 8 C-5.195625 7.236875 -4.39125 6.47375 -3.5625 5.6875 C-0.83200976 3.20569102 -0.83200976 3.20569102 0 0 Z " fill="#B8D1D4" transform="translate(837,190)"/>
<path d="M0 0 C0 1.32 0 2.64 0 4 C-3 5 -3 5 -6 4 C-6 3.34 -6 2.68 -6 2 C-2.25 0 -2.25 0 0 0 Z " fill="#114222" transform="translate(287,126)"/>
</svg>
